<svg width="60" height="33" viewBox="0 0 60 33" fill="none" xmlns="http://www.w3.org/2000/svg">
<path d="M26.9484 29.1487L26.8545 29.0548C26.5728 28.7731 26.1972 28.6792 25.8216 28.6792C25.3522 28.6792 24.7888 28.867 24.5071 29.3365L23.9437 30.0876C23.662 30.4632 23.5681 30.9327 23.5681 31.3083C23.5681 31.7778 23.8498 32.1534 24.2254 32.4351L24.3193 32.529C24.601 32.8107 24.9766 32.9046 25.3522 32.9046C25.9155 32.9046 26.385 32.6229 26.6667 32.2473L27.2301 31.59C27.5118 31.2144 27.6057 30.8388 27.6057 30.3693C27.5118 29.806 27.324 29.4304 26.9484 29.1487Z" fill="#F49008"/>
<path d="M24.7887 23.8904L24.6949 23.7965C24.4132 23.5148 24.0376 23.4209 23.662 23.4209C23.0986 23.4209 22.6291 23.6087 22.3474 24.0782L19.4366 27.7401C18.8733 28.4913 18.9672 29.5242 19.7183 30.0876L19.8122 30.1815C20.0939 30.4632 20.4695 30.5571 20.8451 30.5571C21.4085 30.5571 21.878 30.2754 22.1596 29.8998L25.0704 26.2378C25.7277 25.5805 25.5399 24.5477 24.7887 23.8904Z" fill="#F49008"/>
<path d="M19.6245 22.6697L19.5306 22.5758C19.155 22.2941 18.7794 22.2002 18.4038 22.2002C17.9343 22.2002 17.371 22.388 17.0893 22.8575L16.2442 23.8903L16.1503 23.9842L15.8686 24.3598L15.493 24.8293C15.2113 25.2049 15.1174 25.5805 15.1174 26.05C15.2113 26.5194 15.3991 26.895 15.7747 27.1767L15.8686 27.2706C16.1503 27.5523 16.5259 27.6462 16.9015 27.6462C17.4648 27.6462 17.9343 27.3645 18.216 26.9889L19.8123 24.9232C20.4695 24.2659 20.3756 23.2331 19.6245 22.6697Z" fill="#F49008"/>
<path d="M15.493 21.9185C15.3991 21.449 15.2113 20.9795 14.8357 20.7917C14.4601 20.4162 14.0845 20.3223 13.7089 20.3223C13.1456 20.3223 12.6761 20.604 12.3005 20.9795L11.9249 21.3551C11.6432 21.7307 11.5493 22.2002 11.5493 22.6697C11.6432 23.1392 11.831 23.6087 12.2066 23.7964C12.4883 24.0781 12.8639 24.172 13.3334 24.172C13.8967 24.172 14.3662 23.8903 14.7418 23.5148L15.1174 23.0453C15.3991 22.6697 15.493 22.2941 15.493 21.9185Z" fill="#F49008"/>
<path d="M10.2347 0.228516L0 11.9656L6.76056 16.5665L15.7746 3.89049L10.2347 0.228516Z" fill="#F49008"/>
<path d="M49.108 22.1066L38.216 14.6888L33.709 14.5949C33.6151 14.5949 33.5212 14.5949 33.4273 14.501C31.831 13.6559 30.7043 11.778 30.1409 10.839L30.047 10.6512H26.0094L25.9155 10.839C25.0704 14.3132 22.2535 15.1583 21.1268 15.3461C21.0329 15.3461 21.0329 15.3461 20.939 15.3461C20.6573 15.3461 20.3756 15.2522 20.1878 15.0644C19.9061 14.8766 19.7183 14.501 19.7183 14.1254V9.05499C19.7183 8.30382 20.0939 7.64654 20.6573 7.17706L23.0986 5.29912H22.4413C21.4085 5.20523 20.3756 5.11133 19.2489 5.11133C18.4977 5.11133 17.6526 5.11133 16.9953 5.20523H16.9014L9.2019 16.0033L9.2958 16.1911C10.1409 17.5057 11.0798 18.6325 11.9249 19.2897L12.1127 19.3836L12.3005 19.2897C12.77 19.008 13.2395 18.9141 13.8028 18.9141C14.554 18.9141 15.2113 19.1019 15.7747 19.5714C16.2442 19.947 16.5258 20.4165 16.8075 20.886L16.9014 21.1677L17.1831 20.9799C17.4648 20.7921 17.8404 20.6982 18.216 20.6982H18.5916C19.2489 20.6982 20 20.886 20.4695 21.3555L20.5634 21.4494C20.939 21.731 21.2207 22.1066 21.4085 22.5761L21.5963 22.9517L21.878 22.7639C22.4413 22.2944 23.0986 22.1066 23.8498 22.1066C24.5071 22.1066 25.1643 22.2944 25.7277 22.7639L25.8216 22.8578C27.0423 23.8907 27.324 25.6747 26.385 26.9893L26.1033 27.3649L26.5728 27.4587C27.0423 27.5526 27.4179 27.7404 27.7935 28.0221L27.8874 28.116C28.5446 28.5855 28.9202 29.3367 29.0141 30.1818C29.0141 30.5573 29.0141 30.9329 28.9202 31.3085L28.8263 31.4963L29.6714 32.1536C30.047 32.4353 30.5165 32.4353 30.7043 32.4353C31.2676 32.4353 31.831 32.1536 32.2066 31.6841C32.77 30.839 32.5822 29.7123 31.831 29.1489L30.047 28.0221C29.8592 27.8343 29.6714 27.5526 29.7653 27.271C29.7653 27.1771 29.8592 27.0832 29.8592 26.9893C29.9531 26.8015 30.2348 26.7076 30.4226 26.7076C30.6104 26.7076 30.7043 26.7076 30.7981 26.8015L35.9625 30.4634C36.2442 30.6512 36.7136 30.839 37.0892 30.839H37.4648C37.9343 30.7451 38.4038 30.4634 38.6855 29.994C38.9672 29.6184 39.0611 29.055 38.9672 28.5855C38.8733 28.116 38.5916 27.6465 38.216 27.3649L38.1221 27.271L33.3334 23.8907C33.1456 23.7968 33.0517 23.609 33.0517 23.4212C33.0517 23.2334 33.0517 23.0456 33.1456 22.9517C33.2395 22.7639 33.5212 22.67 33.709 22.67C33.8967 22.67 33.9906 22.67 34.0845 22.7639L41.3146 27.9282C41.5963 28.116 42.0658 28.3038 42.4413 28.3038H42.8169C43.2864 28.2099 43.7559 27.9282 44.0376 27.4587C44.601 26.6137 44.4132 25.393 43.5681 24.8296L36.0564 19.5714C35.8686 19.4775 35.7747 19.2897 35.7747 19.1019C35.7747 18.9141 35.7747 18.7264 35.8686 18.6325C35.9625 18.4447 36.2442 18.3508 36.432 18.3508H36.6197C36.7136 18.3508 36.8075 18.4447 36.9014 18.4447L44.4132 23.7968L46.7606 25.4869C47.1362 25.6747 47.5118 25.8625 47.8874 25.8625C48.5446 25.8625 49.108 25.5808 49.4836 25.0174C49.6714 24.6418 49.8592 24.2663 49.8592 23.8907C49.9531 23.0456 49.6714 22.4822 49.108 22.1066Z" fill="#F49008"/>
<path d="M43.1924 5.29873C39.9061 4.92315 36.8075 4.73535 33.8028 4.73535C30.9859 4.73535 28.169 4.92314 25.5399 5.20484H25.446L21.5962 8.39732C21.3145 8.58512 21.1267 8.86681 21.1267 9.1485V14.0311L21.5023 13.9372C22.8168 13.5616 24.4131 12.5288 24.7887 9.89967C24.8826 9.52408 25.1643 9.33629 25.446 9.33629H30.5164C30.7981 9.33629 31.0798 9.52409 31.1737 9.71188C31.1737 9.71188 32.3004 12.1532 33.8967 13.1861L33.9906 13.28L38.8732 13.3738L40.845 14.7823L47.8873 19.6649L48.0751 19.571C48.9201 18.8199 49.8591 17.787 50.7981 16.2846L50.892 16.0969L43.2863 5.29873H43.1924Z" fill="#F49008"/>
<path d="M49.7652 0.228516L44.2253 3.89049L52.3944 15.3459L53.2394 16.5665L60 11.9656L49.7652 0.228516Z" fill="#F49008"/>
</svg>
