<svg width="40" height="39" viewBox="0 0 40 39" fill="none" xmlns="http://www.w3.org/2000/svg">
<path d="M22.4729 18.7404C25.3023 18.3851 28.0923 19.5238 29.8816 21.7279C30.0129 21.8897 30.2473 21.9251 30.4155 21.8022C31.2261 21.21 31.9239 20.47 32.4711 19.6159C35.8811 14.2955 32.0944 7.11426 25.625 7.11426C21.4034 7.11426 17.9239 10.3495 17.5366 14.4711C17.521 14.6375 17.613 14.7965 17.7659 14.8641C19.5319 15.6452 21.0407 16.9321 22.1005 18.5683C22.1809 18.6925 22.3262 18.7587 22.4729 18.7404Z" fill="#F49008"/>
<path d="M25.625 5.86426C26.3154 5.86426 26.875 5.30457 26.875 4.61426V2.11426C26.875 1.42395 26.3154 0.864258 25.625 0.864258C24.9346 0.864258 24.375 1.42395 24.375 2.11426V4.61426C24.375 5.30457 24.9346 5.86426 25.625 5.86426Z" fill="#F49008"/>
<path d="M38.75 13.9893H36.25C35.5596 13.9893 35 14.5489 35 15.2393C35 15.9296 35.5596 16.4893 36.25 16.4893H38.75C39.4404 16.4893 40 15.9296 40 15.2393C40 14.5489 39.4404 13.9893 38.75 13.9893Z" fill="#F49008"/>
<path d="M34.0219 21.8685C33.5338 21.3804 32.7423 21.3804 32.2541 21.8685C31.7659 22.3567 31.7659 23.1481 32.2541 23.6363L34.0219 25.404C34.2659 25.6481 34.5858 25.7702 34.9057 25.7702C36.0094 25.7702 36.5792 24.4259 35.7895 23.6363L34.0219 21.8685Z" fill="#F49008"/>
<path d="M17.2281 8.61006C17.7162 9.09826 18.5077 9.09826 18.9959 8.61006C19.4841 8.12186 19.4841 7.33045 18.9959 6.84232L17.2281 5.07459C16.7402 4.58646 15.9487 4.58646 15.4604 5.07459C14.9722 5.56279 14.9722 6.3542 15.4604 6.84232L17.2281 8.61006Z" fill="#F49008"/>
<path d="M33.138 8.97626C33.458 8.97626 33.7778 8.85423 34.0219 8.61009L35.7896 6.84235C36.2778 6.35415 36.2778 5.56274 35.7896 5.07462C35.3015 4.58649 34.51 4.58642 34.0219 5.07462L32.2542 6.84243C31.4644 7.6322 32.0344 8.97626 33.138 8.97626Z" fill="#F49008"/>
<path d="M29.1039 28.0519C30.0676 23.3039 25.0952 19.6433 20.8785 21.8071C19.9517 18.7485 17.1111 16.522 13.75 16.522C9.38797 16.522 5.94422 20.2578 6.33203 24.6357C2.78891 24.9125 0 27.8752 0 31.4894C0 35.2758 3.06758 38.3644 6.875 38.3644H29.2188C32.0665 38.3644 34.375 36.0559 34.375 33.2081C34.375 30.4864 32.2334 28.0519 29.1039 28.0519Z" fill="#F49008"/>
</svg>
