<svg width="40" height="41" viewBox="0 0 40 41" fill="none" xmlns="http://www.w3.org/2000/svg">
<g clip-path="url(#clip0_270_12900)">
<path d="M1.11125 26.2046H5.55542C6.16903 26.2046 6.66667 26.7018 6.66667 27.3154V38.4267C6.66667 39.0403 6.16903 39.5379 5.55542 39.5379H1.11125C0.49764 39.5379 0 39.0403 0 38.4267V27.3154C0 26.7018 0.49764 26.2046 1.11125 26.2046Z" fill="#F49008"/>
<path d="M12.2221 17.3154H16.6667C17.2803 17.3154 17.7779 17.8131 17.7779 18.4267V38.4267C17.7779 39.0403 17.2803 39.5379 16.6667 39.5379H12.2221C11.6085 39.5379 11.1113 39.0403 11.1113 38.4267V18.4267C11.1113 17.8131 11.6085 17.3154 12.2221 17.3154Z" fill="#F49008"/>
<path d="M23.3334 21.7603H27.7779C28.3915 21.7603 28.8888 22.2579 28.8888 22.8715V38.4269C28.8888 39.0405 28.3915 39.5382 27.7779 39.5382H23.3334C22.7197 39.5382 22.2221 39.0405 22.2221 38.4269V22.8715C22.2221 22.2579 22.7197 21.7603 23.3334 21.7603Z" fill="#F49008"/>
<path d="M34.4446 15.0933H38.8887C39.5023 15.0933 40 15.5909 40 16.2045V38.4266C40 39.0402 39.5023 39.5378 38.8887 39.5378H34.4446C33.831 39.5378 33.3333 39.0402 33.3333 38.4266V16.2045C33.3333 15.5909 33.831 15.0933 34.4446 15.0933Z" fill="#F49008"/>
<path d="M36.6667 1.76025C34.8267 1.76229 33.3354 3.25358 33.3333 5.09359C33.3378 5.45654 33.4021 5.81624 33.5238 6.15804L27.9614 9.46452C27.2314 8.69019 26.1731 8.31502 25.1184 8.45622C24.0633 8.59741 23.1413 9.23787 22.6404 10.177L17.7344 7.74699C17.7584 7.60417 17.7726 7.46012 17.7779 7.31567C17.7804 5.96639 16.9694 4.74894 15.7235 4.23096C14.4775 3.71338 13.0424 3.9978 12.0882 4.95158C11.1336 5.90535 10.8484 7.34009 11.3656 8.58643L5.00163 13.3358C4.49707 13.0351 3.9209 12.8748 3.33333 12.8715C1.49251 12.8715 0 14.3636 0 16.2048C0 18.0457 1.49251 19.5382 3.33333 19.5382C5.17415 19.5382 6.66667 18.0457 6.66667 16.2048C6.66382 15.8036 6.58813 15.4069 6.44328 15.033L12.8707 10.236C14.128 10.9371 15.6962 10.7316 16.7301 9.72982L22.3092 12.4931C22.6811 14.1496 24.2399 15.2612 25.9273 15.0732C27.6147 14.8853 28.8908 13.4583 28.8888 11.7603C28.8888 11.6756 28.87 11.5959 28.8639 11.5129L34.9137 7.91626C35.4382 8.24788 36.0457 8.42489 36.6667 8.42692C38.5075 8.42692 40 6.93441 40 5.09359C40 3.25277 38.5075 1.76025 36.6667 1.76025Z" fill="#F49008"/>
</g>
<defs>
<clipPath id="clip0_270_12900">
<rect width="40" height="40" fill="white" transform="translate(0 0.614258)"/>
</clipPath>
</defs>
</svg>
