<svg width="20" height="21" viewBox="0 0 20 21" fill="none" xmlns="http://www.w3.org/2000/svg">
<path d="M17.8125 1.73926H15.4688V0.958008C15.4688 0.750807 15.3864 0.552093 15.2399 0.405581C15.0934 0.259068 14.8947 0.176758 14.6875 0.176758C14.4803 0.176758 14.2816 0.259068 14.1351 0.405581C13.9886 0.552093 13.9062 0.750807 13.9062 0.958008V1.73926H6.09375V0.958008C6.09375 0.750807 6.01144 0.552093 5.86493 0.405581C5.71841 0.259068 5.5197 0.176758 5.3125 0.176758C5.1053 0.176758 4.90659 0.259068 4.76007 0.405581C4.61356 0.552093 4.53125 0.750807 4.53125 0.958008V1.73926H2.1875C1.7731 1.73926 1.37567 1.90388 1.08265 2.1969C0.78962 2.48993 0.625 2.88736 0.625 3.30176V18.9268C0.625 19.3412 0.78962 19.7386 1.08265 20.0316C1.37567 20.3246 1.7731 20.4893 2.1875 20.4893H17.8125C18.2269 20.4893 18.6243 20.3246 18.9174 20.0316C19.2104 19.7386 19.375 19.3412 19.375 18.9268V3.30176C19.375 2.88736 19.2104 2.48993 18.9174 2.1969C18.6243 1.90388 18.2269 1.73926 17.8125 1.73926ZM4.53125 3.30176V4.08301C4.53125 4.29021 4.61356 4.48892 4.76007 4.63543C4.90659 4.78195 5.1053 4.86426 5.3125 4.86426C5.5197 4.86426 5.71841 4.78195 5.86493 4.63543C6.01144 4.48892 6.09375 4.29021 6.09375 4.08301V3.30176H13.9062V4.08301C13.9062 4.29021 13.9886 4.48892 14.1351 4.63543C14.2816 4.78195 14.4803 4.86426 14.6875 4.86426C14.8947 4.86426 15.0934 4.78195 15.2399 4.63543C15.3864 4.48892 15.4688 4.29021 15.4688 4.08301V3.30176H17.8125V6.42676H2.1875V3.30176H4.53125ZM17.8125 18.9268H2.1875V7.98926H17.8125V18.9268ZM11.1719 11.5049C11.1719 11.7367 11.1031 11.9632 10.9744 12.1559C10.8456 12.3487 10.6626 12.4989 10.4485 12.5876C10.2343 12.6762 9.9987 12.6995 9.77138 12.6542C9.54406 12.609 9.33525 12.4974 9.17136 12.3335C9.00747 12.1696 8.89586 11.9608 8.85064 11.7335C8.80543 11.5062 8.82863 11.2706 8.91733 11.0564C9.00603 10.8423 9.15623 10.6593 9.34894 10.5305C9.54166 10.4017 9.76823 10.333 10 10.333C10.3108 10.333 10.6089 10.4565 10.8286 10.6762C11.0484 10.896 11.1719 11.1941 11.1719 11.5049ZM15.4688 11.5049C15.4688 11.7367 15.4 11.9632 15.2713 12.1559C15.1425 12.3487 14.9595 12.4989 14.7453 12.5876C14.5312 12.6762 14.2956 12.6995 14.0683 12.6542C13.8409 12.609 13.6321 12.4974 13.4682 12.3335C13.3043 12.1696 13.1927 11.9608 13.1475 11.7335C13.1023 11.5062 13.1255 11.2706 13.2142 11.0564C13.3029 10.8423 13.4531 10.6593 13.6458 10.5305C13.8385 10.4017 14.0651 10.333 14.2969 10.333C14.6077 10.333 14.9057 10.4565 15.1255 10.6762C15.3453 10.896 15.4688 11.1941 15.4688 11.5049ZM6.875 15.4111C6.875 15.6429 6.80627 15.8695 6.6775 16.0622C6.54874 16.2549 6.36571 16.4051 6.15158 16.4938C5.93745 16.5825 5.70182 16.6057 5.4745 16.5605C5.24718 16.5153 5.03837 16.4037 4.87448 16.2398C4.71059 16.0759 4.59898 15.8671 4.55377 15.6398C4.50855 15.4124 4.53176 15.1768 4.62045 14.9627C4.70915 14.7485 4.85935 14.5655 5.05207 14.4368C5.24478 14.308 5.47135 14.2393 5.70312 14.2393C6.01393 14.2393 6.312 14.3627 6.53177 14.5825C6.75154 14.8023 6.875 15.1003 6.875 15.4111ZM11.1719 15.4111C11.1719 15.6429 11.1031 15.8695 10.9744 16.0622C10.8456 16.2549 10.6626 16.4051 10.4485 16.4938C10.2343 16.5825 9.9987 16.6057 9.77138 16.5605C9.54406 16.5153 9.33525 16.4037 9.17136 16.2398C9.00747 16.0759 8.89586 15.8671 8.85064 15.6398C8.80543 15.4124 8.82863 15.1768 8.91733 14.9627C9.00603 14.7485 9.15623 14.5655 9.34894 14.4368C9.54166 14.308 9.76823 14.2393 10 14.2393C10.3108 14.2393 10.6089 14.3627 10.8286 14.5825C11.0484 14.8023 11.1719 15.1003 11.1719 15.4111ZM15.4688 15.4111C15.4688 15.6429 15.4 15.8695 15.2713 16.0622C15.1425 16.2549 14.9595 16.4051 14.7453 16.4938C14.5312 16.5825 14.2956 16.6057 14.0683 16.5605C13.8409 16.5153 13.6321 16.4037 13.4682 16.2398C13.3043 16.0759 13.1927 15.8671 13.1475 15.6398C13.1023 15.4124 13.1255 15.1768 13.2142 14.9627C13.3029 14.7485 13.4531 14.5655 13.6458 14.4368C13.8385 14.308 14.0651 14.2393 14.2969 14.2393C14.6077 14.2393 14.9057 14.3627 15.1255 14.5825C15.3453 14.8023 15.4688 15.1003 15.4688 15.4111Z" fill="#B0B0B0"/>
</svg>
