<svg width="21" height="21" viewBox="0 0 21 21" fill="none" xmlns="http://www.w3.org/2000/svg">
<path d="M15.8293 6.46603C15.1671 6.46732 14.6286 5.93109 14.6273 5.26883C14.626 4.60656 15.1622 4.06807 15.8248 4.06677C16.4874 4.06548 17.0259 4.60202 17.0272 5.26429C17.0281 5.92656 16.4919 6.46473 15.8293 6.46603Z" fill="white"/>
<path fill-rule="evenodd" clip-rule="evenodd" d="M10.5096 15.7484C7.67424 15.7539 5.37092 13.46 5.36542 10.624C5.3599 7.78861 7.65446 5.48493 10.4898 5.47943C13.3258 5.47392 15.6294 7.76917 15.6349 10.6042C15.6404 13.4402 13.3452 15.7429 10.5096 15.7484ZM10.4934 7.28122C8.65304 7.28446 7.16328 8.77974 7.16652 10.6204C7.17009 12.4614 8.66568 13.9509 10.506 13.9473C12.347 13.9437 13.8367 12.4488 13.8332 10.6078C13.8296 8.76678 12.334 7.27766 10.4934 7.28122Z" fill="white"/>
<path fill-rule="evenodd" clip-rule="evenodd" d="M3.93267 1.15299C4.56772 0.904154 5.29445 0.733726 6.35846 0.683506C7.42509 0.632318 7.7656 0.62065 10.4807 0.615468C13.1965 0.610286 13.537 0.620648 14.6036 0.667952C15.668 0.71396 16.395 0.881798 17.0314 1.12804C17.6897 1.38174 18.2483 1.72324 18.805 2.27761C19.3616 2.83263 19.7044 3.38928 19.9613 4.04668C20.2098 4.68238 20.3802 5.40847 20.4308 6.47315C20.4813 7.53945 20.4936 7.87965 20.4988 10.5951C20.504 13.3103 20.493 13.6512 20.4463 14.7184C20.4 15.7821 20.2325 16.5095 19.9863 17.1455C19.7319 17.8039 19.3911 18.3625 18.8367 18.9191C18.2823 19.4761 17.7251 19.8186 17.0677 20.0758C16.432 20.324 15.7059 20.4945 14.6419 20.5453C13.5753 20.5959 13.2347 20.6079 10.5186 20.613C7.80383 20.6182 7.46332 20.6079 6.39671 20.5609C5.33235 20.5142 4.60498 20.3467 3.96896 20.1008C3.3106 19.8461 2.75202 19.5056 2.19538 18.9509C1.63843 18.3962 1.29532 17.8392 1.03872 17.1818C0.789881 16.5465 0.620089 15.82 0.569227 14.7563C0.518363 13.6894 0.506379 13.3485 0.501199 10.6334C0.495999 7.91789 0.506697 7.57769 0.553347 6.51105C0.600333 5.44638 0.767197 4.71931 1.01344 4.08264C1.26777 3.42458 1.60862 2.86633 2.16364 2.30936C2.718 1.75273 3.27527 1.40927 3.93267 1.15299ZM4.61795 18.4208C4.97078 18.5566 5.50019 18.7186 6.47512 18.761C7.53006 18.8067 7.84595 18.8168 10.5154 18.8116C13.1858 18.8067 13.5017 18.7954 14.5563 18.7458C15.5303 18.6995 16.0597 18.5355 16.4116 18.3981C16.8785 18.2157 17.2109 17.9977 17.5601 17.6481C17.9094 17.2972 18.1255 16.9638 18.3063 16.4969C18.4424 16.1437 18.6041 15.614 18.6465 14.639C18.6928 13.5847 18.7026 13.2685 18.6974 10.5984C18.6925 7.9289 18.6812 7.61268 18.631 6.55804C18.5849 5.58375 18.4213 5.05433 18.2836 4.70278C18.1012 4.23525 17.8838 3.90347 17.5333 3.55387C17.1827 3.20426 16.8493 2.9888 16.3818 2.80801C16.0295 2.6716 15.4995 2.51024 14.5252 2.4678C13.4703 2.42147 13.154 2.41207 10.484 2.41726C7.81452 2.42244 7.49863 2.43313 6.44401 2.48303C5.46942 2.52936 4.94064 2.69298 4.58812 2.83069C4.12156 3.0131 3.78914 3.22986 3.43955 3.58076C3.09059 3.93165 2.87448 4.2644 2.6937 4.73227C2.55827 5.08479 2.39529 5.61486 2.3535 6.58915C2.30748 7.6441 2.29777 7.96033 2.30296 10.6298C2.30782 13.2999 2.31915 13.6162 2.36873 14.6701C2.41441 15.6451 2.57932 16.1738 2.71638 16.5267C2.89879 16.9929 3.1162 17.3254 3.46644 17.675C3.81734 18.0233 4.15073 18.24 4.61795 18.4208Z" fill="white"/>
</svg>
