<svg width="15" height="20" viewBox="0 0 15 20" fill="none" xmlns="http://www.w3.org/2000/svg">
<path d="M6.99833 18.8418L6.99828 18.8417C6.86458 18.7484 5.20683 17.5708 3.58314 15.6637C1.95861 13.7556 0.375012 11.1252 0.375 8.12503C0.377059 6.23599 1.12839 4.42491 2.46415 3.08915C3.7999 1.7534 5.61097 1.00207 7.5 1C9.38903 1.00207 11.2001 1.7534 12.5359 3.08915C13.8716 4.42491 14.6229 6.23601 14.625 8.12507C14.625 10.6346 13.4735 13.2924 11.2857 15.8051L11.2856 15.8052C10.3067 16.9362 9.20512 17.9547 8.00109 18.8422C7.85416 18.9448 7.67924 18.9999 7.5 18.9999C7.32052 18.9999 7.14538 18.9447 6.99833 18.8418ZM9.99245 14.6278L9.99262 14.6276C11.2998 13.1137 12.875 10.7506 12.875 8.125C12.875 6.69946 12.3087 5.33231 11.3007 4.3243C10.2927 3.31629 8.92554 2.75 7.5 2.75C6.07446 2.75 4.70731 3.31629 3.6993 4.3243C2.69129 5.33231 2.125 6.69946 2.125 8.125C2.125 10.7506 3.7002 13.1137 5.00738 14.6276L5.00755 14.6278C5.75483 15.4861 6.57567 16.2776 7.46071 16.9931L7.5 17.0249L7.53929 16.9931C8.42433 16.2776 9.24517 15.4861 9.99245 14.6278ZM5.62495 5.31879C6.17995 4.94795 6.83244 4.75001 7.49993 4.75C8.39474 4.75101 9.25261 5.10693 9.88534 5.73966C10.5181 6.37239 10.874 7.23026 10.875 8.12507C10.875 8.79256 10.677 9.44505 10.3062 10C9.93536 10.5551 9.40826 10.9876 8.79156 11.2431C8.17486 11.4985 7.49626 11.5654 6.84157 11.4352C6.18688 11.3049 5.58552 10.9835 5.11351 10.5115C4.64151 10.0395 4.32008 9.43812 4.18985 8.78343C4.05962 8.12874 4.12646 7.45014 4.38191 6.83344C4.63735 6.21674 5.06993 5.68964 5.62495 5.31879ZM6.5972 9.47614C6.86443 9.6547 7.17861 9.75 7.5 9.75C7.93098 9.75 8.3443 9.5788 8.64905 9.27405C8.9538 8.9693 9.125 8.55598 9.125 8.125C9.125 7.80361 9.0297 7.48943 8.85114 7.2222C8.67258 6.95497 8.41879 6.74669 8.12186 6.6237C7.82493 6.5007 7.4982 6.46852 7.18298 6.53122C6.86776 6.59392 6.57821 6.74869 6.35095 6.97595C6.12369 7.20321 5.96892 7.49276 5.90622 7.80798C5.84352 8.1232 5.8757 8.44993 5.9987 8.74686C6.12169 9.04379 6.32997 9.29758 6.5972 9.47614Z" fill="white" stroke="white" stroke-width="0.125"/>
</svg>
