<svg width="21" height="20" viewBox="0 0 21 20" fill="none" xmlns="http://www.w3.org/2000/svg">
<path d="M19.0477 5.54353L19.0478 5.54347C19.1783 5.44831 19.3326 5.39113 19.4936 5.37826C19.6546 5.36539 19.816 5.39733 19.9599 5.47055C20.1037 5.54382 20.2243 5.65539 20.3086 5.79293C20.3929 5.93049 20.4375 6.08868 20.4375 6.25V13.75V13.75C20.4376 13.9115 20.393 14.0698 20.3087 14.2075C20.2243 14.3452 20.1036 14.4569 19.9597 14.5302C19.8158 14.6035 19.6545 14.6355 19.4935 14.6228C19.3326 14.6101 19.1783 14.553 19.0477 14.4581L19.0127 14.5061L19.0477 14.458L17.0993 13.0409L17 12.9687V13.0914V14.375C17 14.7728 16.842 15.1544 16.5607 15.4357C16.2794 15.717 15.8978 15.875 15.5 15.875H3C2.60218 15.875 2.22064 15.717 1.93934 15.4357C1.65804 15.1544 1.5 14.7728 1.5 14.375V5.625C1.5 5.22718 1.65804 4.84564 1.93934 4.56434C2.22064 4.28304 2.60218 4.125 3 4.125H15.5C15.8978 4.125 16.2794 4.28304 16.5607 4.56434C16.842 4.84564 17 5.22718 17 5.625V6.90859V7.03126L17.0992 6.95916L19.0477 5.54353ZM15.1875 14.125H15.25V14.0625V5.9375V5.875H15.1875H3.3125H3.25V5.9375V14.0625V14.125H3.3125H15.1875ZM18.5882 11.9591L18.6875 12.0313V11.9086V8.09141V7.9687L18.5882 8.04085L17.0257 9.17679L17 9.19551V9.22734V10.7727V10.8045L17.0257 10.8232L18.5882 11.9591Z" fill="white" stroke="white" stroke-width="0.125"/>
</svg>
