<svg
  xmlns="http://www.w3.org/2000/svg"
  width="19"
  height="18"
  viewBox="0 0 19 18"
  fill="none"
>
  <path
    d="M8.38362 11.1947L3.3908 16.8997H1.26483L7.45889 9.82019L7.59819 9.66097L7.46968 9.49292L0.856275 0.845064H6.00545L9.93311 6.03777L10.1247 6.2911L10.3339 6.05204L14.889 0.845064H17.0133L11.2467 7.4359L11.1081 7.59426L11.2351 7.76208L18.1468 16.8997H13.1369L8.7835 11.2079L8.59162 10.957L8.38362 11.1947ZM13.5797 15.6326L13.6573 15.734H13.7851H15.3428H15.8624L15.549 15.3196L5.49381 2.02488L5.41623 1.92231H5.28763H3.61601H3.09281L3.41068 2.33788L13.5797 15.6326Z"
    fill="white"
    stroke="white"
    stroke-width="0.517032"></path>
</svg>
