<svg width="649" height="188" viewBox="0 0 649 188" fill="none" xmlns="http://www.w3.org/2000/svg">
<path d="M1.62151 2C1.71063 10.7338 -0.00498581 22.6678 7.08086 29.3807C14.2369 36.1601 21.8382 41.2119 31.6059 43.4911C44.3194 46.4575 56.8986 49.2902 69.3174 53.3179C75.1013 55.1937 81.323 54.985 87.2913 55.8376C99.5326 57.5863 111.568 59.8548 123.911 60.961C147.457 63.0713 171.358 63.668 194.798 66.1684C243.065 71.3168 291.256 74.5813 339.765 77.591C363.383 79.0563 386.383 80.0486 409.645 84.5622C441.927 90.8258 474.447 93.2199 506.821 98.6725C526.324 101.957 544.677 106.483 563.515 112.279C575.562 115.986 592.543 116.813 602.57 125.297C613.742 134.751 626.331 138.844 635.074 151.334C642.652 162.16 645.325 173.534 647.169 186.442" stroke="#3D2C25" stroke-width="3" stroke-linecap="round" stroke-dasharray="14 14"/>
</svg>
