<svg width="649" height="250" viewBox="0 0 649 250" fill="none" xmlns="http://www.w3.org/2000/svg">
<path d="M643.964 2C648.534 20.9133 652.666 44.7512 629.194 57.0859C621.372 61.1966 615.602 66.32 607.041 69.9141C595.526 74.7479 583.994 75.1342 571.348 77.4601C558.187 79.8809 544.958 81.549 531.656 83.4131C520.654 84.9549 509.468 84.171 498.938 87.2699C489.762 89.9703 481.899 90.7953 472.168 91.1268C456.805 91.6501 441.716 94.784 426.322 95.5706C395.598 97.1403 365.618 103.981 335.245 107.644C301.363 111.731 267.562 116.186 234.116 122.065C213.479 125.693 192.585 129.526 172.577 134.978C145.164 142.447 115.589 145.662 88.5772 153.759C69.5364 159.466 42.2805 172.762 30.218 186.458C21.461 196.401 8.66466 206.174 5.29488 218.571C2.56472 228.614 1.5 237.522 1.5 248" stroke="#3D2C25" stroke-width="3" stroke-linecap="round" stroke-dasharray="14 14"/>
</svg>
