<svg width="17" height="18" viewBox="0 0 17 18" fill="none" xmlns="http://www.w3.org/2000/svg">
<path d="M12.023 6.72698L12.023 6.72703C12.0753 6.77927 12.1168 6.84131 12.1451 6.9096C12.1734 6.97788 12.188 7.05108 12.188 7.125C12.188 7.19892 12.1734 7.27212 12.1451 7.3404C12.1168 7.40869 12.0753 7.47073 12.023 7.52297L12.023 7.52299L7.648 11.898L7.64797 11.898C7.59573 11.9503 7.53369 11.9918 7.46541 12.0201C7.39712 12.0484 7.32393 12.063 7.25 12.063C7.17608 12.063 7.10289 12.0484 7.0346 12.0201C6.96631 11.9918 6.90428 11.9503 6.85203 11.898L6.85201 11.898L4.97701 10.023C4.87146 9.91744 4.81216 9.77428 4.81216 9.625C4.81216 9.47572 4.87146 9.33256 4.97701 9.22701C5.08256 9.12145 5.22573 9.06215 5.375 9.06215C5.52427 9.06215 5.66743 9.12145 5.77298 9.22699C5.77299 9.227 5.77299 9.227 5.773 9.22701L7.2058 10.6606L7.25 10.7048L7.2942 10.6606L11.227 6.727L11.227 6.72698C11.2793 6.67468 11.3413 6.63319 11.4096 6.60489C11.4779 6.57658 11.5511 6.56201 11.625 6.56201C11.6989 6.56201 11.7721 6.57658 11.8404 6.60489C11.9087 6.63319 11.9707 6.67468 12.023 6.72698ZM15.4375 9.00007V9C15.4375 7.62789 15.0306 6.2866 14.2683 5.14573C13.506 4.00487 12.4225 3.11567 11.1549 2.59059C9.88721 2.0655 8.49231 1.92812 7.14656 2.1958C5.80082 2.46349 4.56468 3.12422 3.59445 4.09445C2.62422 5.06467 1.96349 6.30082 1.69581 7.64656C1.42812 8.9923 1.56551 10.3872 2.09059 11.6549C2.61567 12.9225 3.50487 14.006 4.64573 14.7683C5.7866 15.5306 7.1279 15.9375 8.5 15.9375H8.50007C10.3394 15.9354 12.1027 15.2038 13.4033 13.9033C14.7038 12.6027 15.4354 10.8394 15.4375 9.00007ZM16.5625 9.00007C16.5625 10.5947 16.0896 12.1534 15.2037 13.4793C14.3178 14.8052 13.0586 15.8385 11.5854 16.4488C10.1122 17.059 8.49106 17.2187 6.92709 16.9076C5.36312 16.5965 3.92652 15.8286 2.79896 14.701C1.67139 13.5735 0.903516 12.1369 0.592422 10.5729C0.281329 9.00894 0.440993 7.38784 1.05122 5.91461C1.66146 4.44139 2.69485 3.1822 4.02072 2.29628C5.34658 1.41036 6.90537 0.937507 8.49997 0.9375C10.6376 0.939766 12.687 1.78994 14.1985 3.30146C15.7101 4.813 16.5602 6.86243 16.5625 9.00007Z" fill="white" stroke="white" stroke-width="0.125"/>
</svg>
