<svg width="240" height="240" viewBox="0 0 240 240" fill="none" xmlns="http://www.w3.org/2000/svg">
<g clip-path="url(#clip0_12903_5173)">
<g filter="url(#filter0_f_12903_5173)">
<path d="M190 120C190 158.109 158.886 189 120.5 189C82.1144 189 51 158.113 51 120C51 81.8872 82.1144 51 120.5 51C158.886 51 190 81.8905 190 120Z" fill="#B3C4CC"/>
</g>
<path d="M172.932 165.685C147.91 194.707 104.102 197.953 75.0805 172.932C46.0586 147.91 42.8119 104.097 67.8338 75.0805C92.8557 46.0586 136.663 42.8119 165.685 67.8338C194.707 92.8557 197.954 136.663 172.932 165.685Z" fill="url(#paint0_radial_12903_5173)"/>
<g style="mix-blend-mode:overlay">
<path d="M172.932 165.685C147.91 194.707 104.103 197.953 75.0812 172.932C46.0593 147.91 42.8126 104.097 67.8345 75.0805C92.8564 46.0586 136.664 42.8119 165.686 67.8338C194.708 92.8557 197.954 136.663 172.932 165.685Z" fill="url(#paint1_radial_12903_5173)"/>
</g>
<g style="mix-blend-mode:multiply" opacity="0.72">
<path d="M182.123 94.2459C182.152 94.0882 181.848 93.5568 181.836 93.3875C181.906 93.3992 182.782 93.405 182.823 93.5568C182.759 93.3641 182.385 93.4342 182.321 93.3057C182.175 92.5349 182.152 91.2853 181.486 91.659C181.398 90.5904 181.031 91.951 179.793 89.6736C179.635 89.8138 179.092 86.9466 177.848 85.1889C177.369 84.3481 176.779 84.2838 176.201 83.8926C175.413 85.0546 176.12 85.9364 176.534 87.0575C175.378 87.6356 174.899 88.313 175.629 89.586C175.892 89.4984 176.09 89.8488 176.254 89.7904C175.968 90.2283 175.74 91.6473 175.658 92.1612C177.101 91.4955 176.756 93.294 177.422 94.2984C177.801 94.8765 179.185 94.7539 179.536 95.2211C179.863 95.6532 179.46 96.7276 179.839 97.2648C180.721 98.5378 181.077 98.9349 181.772 100.552C182.228 101.609 182.782 103.536 183.384 104.319C184.33 103.496 183.828 100.675 183.244 98.5729C183.273 98.5904 184.114 98.3626 184.149 98.3802C184.09 98.2926 183.168 98.5145 183.121 98.4386C183.057 98.2225 183.028 97.9072 182.958 97.697C182.993 97.5568 184.248 97.6327 184.505 97.6619C184.306 97.3408 183.197 96.7393 182.963 96.1904C183.033 96.132 183.279 96.1203 183.343 96.0152C183.758 95.332 182.852 94.6897 182.14 94.2459H182.123Z" fill="#E6E6E6"/>
<path d="M174.322 85.1479C174.322 85.1479 174.216 85.2238 174.228 85.2063C174.287 85.2589 174.216 85.6151 174.269 85.6735C174.695 86.1698 174.135 87.3552 175.349 87.145C175.092 85.8545 174.024 84.3246 173.428 83.1625C173.422 83.1509 174.106 82.8063 174.1 82.7888C174.065 82.7071 173.662 82.8122 173.621 82.7304C173.154 81.4224 172.138 80.7625 171.781 80.2545C171.968 80.1728 172.891 79.3611 173.142 79.3436C173.23 79.5479 173.341 79.8574 173.446 80.0735C173.562 79.945 173.703 80.3771 173.703 80.2136C173.825 80.1552 174.234 79.8399 174.31 79.7231C174.053 79.3027 172.657 79.472 172.307 79.1567C172.435 79.1041 173.708 78.5144 173.79 78.4968C173.574 78.1523 172.208 77.6735 171.414 76.891C171.355 76.8034 171.268 76.7392 171.192 76.6691C171.069 76.5406 170.876 76.4939 170.742 76.3946C169.627 75.3144 168.687 75.0749 168.628 75.0749C168.628 75.0749 168.465 74.4151 168.465 74.4209C168.4 74.38 168.4 74.2866 168.313 74.2574C168.313 74.2691 168.687 73.5684 168.692 73.5801C168.494 73.4516 168.254 73.8019 168.033 73.7669C168.733 74.8822 167.7 75.6881 166.316 74.4326C166.526 75.1041 166.672 75.0165 166.841 75.437C166.806 75.5012 167.63 75.8633 167.595 75.9333C167.571 75.9333 167.443 75.3611 167.419 75.3552C167.092 74.5844 166.754 73.8954 166.287 73.7494C166.018 73.5041 165.206 74.5377 164.961 74.5844C164.459 74.2925 164.26 73.9596 164.36 74.2399C164.313 74.2282 164.815 73.5859 164.768 73.5567C164.36 73.3114 163.454 73.7611 163.087 73.545C162.368 73.1187 159.297 71.6238 158.625 71.8516C159.174 72.6516 160.243 73.4925 161.107 74.1523C161.936 74.783 162.952 75.1684 163.91 75.583C165.014 76.0618 168.167 76.7275 166.946 78.5844C167.653 79.2209 167.6 80.2311 168.616 79.4019C169.271 80.4238 169.936 82.2808 171.198 82.0355C171.489 83.256 172.301 82.9056 173.113 83.4895C173.311 83.8049 172.955 84.6633 173.078 84.7917C173.3 85.0253 173.288 85.5158 173.557 85.7144C173.615 85.802 174.275 85.072 174.327 85.1304L174.322 85.1479Z" fill="#E6E6E6"/>
<path d="M151.985 90.5084C151.746 92.3186 151.273 92.1902 152.908 93.726C154.292 95.0223 155.022 94.4092 156.616 94.6661C157.918 94.8763 158.8 96.3654 160.242 95.4369C161.638 94.5318 160.277 93.7201 160.23 92.8033C160.365 92.6924 160.908 93.4048 161.03 93.288C161.241 93.4865 162.233 93.3055 162.414 93.4573C162.414 93.1186 162.514 92.5405 162.555 92.1902C162.893 91.8048 162.432 90.2924 162.695 89.8895C163.238 90.2165 163.477 91.1099 163.798 91.6763C164.844 90.6778 164.552 90.2457 164.166 89.2822C164.207 89.2822 164.727 89.1595 164.768 89.1303C164.68 89.0019 164.4 88.5989 164.295 88.5464C164.266 88.4354 164.394 88.8384 164.382 88.7216C164.423 88.5464 164.155 88.4705 164.166 88.3128C164.423 87.8515 164.896 87.3843 164.312 86.5143C164.055 86.1347 163.051 86.3741 162.595 86.1522C162.379 84.8851 164.511 84.8092 163.541 83.723C161.445 80.5639 159.787 83.9916 159.536 84.7157C158.94 82.2223 158.058 80.1493 155.886 79.9216C155.29 79.542 154.449 79.7814 153.428 79.7931C152.248 79.8048 149.346 79.069 148.517 79.8749C149.159 81.1478 150.473 80.342 151.46 80.7391C151.466 80.7391 150.701 81.7843 150.706 81.7902C150.706 81.7902 151.074 81.5332 151.068 81.5391C151.191 81.615 151.209 81.796 151.349 81.8719C151.769 82.2165 152.266 82.1172 152.966 81.9887C153.13 82.0705 153.79 81.9887 153.959 82.0763C154.344 83.0398 154.525 85.0778 155.518 84.7332C156.055 85.323 155.833 84.9785 155.979 85.907C155.46 86.0646 154.041 84.7566 153.988 84.6982C154.006 84.8033 153.422 84.6281 153.06 85.5157C152.832 85.2646 153.03 85.7259 152.92 85.6676C152.844 85.4924 152.896 85.1829 152.814 84.9785C152.75 84.453 152.698 83.8865 152.155 83.2792C152.009 82.8646 151.576 82.088 151.576 82.088C151.279 82.3332 150.981 83.4719 150.736 83.2208C150.66 83.2792 151.01 82.9172 150.969 82.9989C150.268 82.9347 149.842 82.9347 149.778 83.7172C149.69 84.7741 152.768 85.3289 152.511 86.6077C152.423 86.7187 151.722 86.5376 151.652 86.6486C151.144 86.6486 150.706 85.3405 149.994 86.0646C149.953 86.1055 148.557 88.8851 148.593 89.0544C148.855 90.3916 150.887 91.1683 151.985 90.5201V90.5084Z" fill="#E6E6E6"/>
<path d="M170.362 94.7776C170.298 94.8243 170.164 94.9411 170.093 94.9703C170.403 95.6418 171.22 95.9221 171.629 96.4768C171.606 96.4535 171.197 96.7163 171.174 96.6929C171.296 96.8564 171.291 97.6973 171.454 98.5732C171.454 98.5849 172.219 98.6841 172.213 98.6958C171.74 100.559 170.812 99.0112 169.474 98.6958C169.171 99.9104 170.467 100.016 170.847 100.909C171.133 101.575 171.238 102.486 171.547 103.251C171.419 103.35 170.543 103.776 170.432 103.805C169.048 102.007 169.439 101.399 168.914 101.896C168.388 102.129 167.606 101.289 167.337 101.762C166.596 101.037 165.609 101.207 164.972 101.697C162.596 101.528 159.238 102.999 160.377 103.981C159.898 104.01 159.255 103.607 159.18 103.572C159.302 103.402 159.437 103.274 159.448 103.134C159.518 102.894 160.301 102.462 159.723 102.03C159.723 102.129 159.366 103.291 159.349 103.367C158.654 103.128 157.066 102.929 157.241 104.202C157.749 104.518 158.73 105.516 159.331 106.538C159.629 107.227 160.277 107.583 160.312 108.185C160.283 108.319 160.692 108.938 160.616 109.049C160.412 109.037 159.933 108.687 160.061 108.874C160.038 108.897 159.448 108.962 159.413 108.985C159.384 108.594 159.705 108.185 159.518 107.846C159.372 107.005 159.518 106.363 158.596 107.601C157.889 108.553 158.385 110.41 159.326 111.029C159.337 111.128 158.73 110.807 158.742 110.9C158.526 111.303 158.549 112.348 158.777 112.757C158.777 112.816 159.688 111.864 159.676 111.916C159.355 111.759 158.572 112.576 158.298 112.418C158.105 112.302 157.375 111.934 157.142 111.689C156.33 109.954 157.539 106.351 157.188 104.973C156.225 105.767 156.161 106.018 156.19 105.289C156.096 105.341 153.288 108.249 152.984 108.705C153.118 108.489 153.714 108.109 153.685 107.595C153.72 107.449 153.872 107.058 153.807 106.655C153.79 106.661 152.4 106.941 152.382 106.947C152.295 106.345 152.108 105.493 151.968 104.973C152.161 105.09 153.066 104.891 153.165 104.886C153.877 104.839 153.691 104.156 154.485 104.039C154.345 103.601 154.35 103.35 154.134 103.157C154.058 103.029 153.661 102.935 153.013 102.743C154.088 102.053 153.942 104.401 154.28 101.662C154.321 101.51 154.677 101.364 154.672 101.23C154.677 101.166 155.004 101.014 155.01 100.95C154.993 100.95 154.193 101.067 154.181 101.067C154.058 100.418 153.41 100.354 152.762 99.6593C152.26 99.9805 152.272 100.827 152.102 101.417C151.553 101.195 150.771 100.436 150.426 100.185C149.947 99.8462 149.562 99.5075 149.311 98.9936C148.435 99.2739 147.588 100.237 147.915 101.096C147.857 101.131 148.336 100.325 148.283 100.343C147.758 100.109 147.629 100.109 147.18 99.525C146.923 98.9411 146.263 98.4506 145.994 98.2228C145.982 98.252 146.537 98.1528 146.526 98.182C146.263 97.6272 145.264 97.3936 145.025 96.617C143.764 97.1659 144.622 98.2462 144.499 98.3104C143.215 97.4987 141.755 99.052 141.556 98.9703C141.632 98.9177 142.222 100.506 142.566 100.839C140.511 99.3966 140.996 102.807 141.247 103.303C140.528 103.134 139.857 102.41 140.272 103.566C138.356 102.906 137.778 103.735 136.68 103.741C136.797 103.648 136.511 103.624 136.634 103.578C136.534 102.421 136.225 100.921 135.15 102.655C134.794 102.515 135.104 102.48 134.993 102.246C135.209 102.182 134.695 101.709 134.648 101.353C135.974 100.611 134.006 99.2564 133.399 98.4564C133.159 98.7776 132.604 99.3148 132.464 99.7586C132.166 99.0637 132.517 97.9834 132.19 97.3352C131.063 97.5571 131.793 95.5776 131.343 94.8944C130.66 93.8783 129.58 94.2929 128.359 93.8608C128.733 93.3236 129.13 92.7922 129.702 92.471C129.264 91.0987 128.768 91.9863 127.898 91.8987C127.156 91.8228 126.222 90.6374 125.328 90.9119C125.41 91.2039 126.123 92.325 126.228 92.6053C126.123 92.5936 126.047 92.617 125.977 92.5352C125.831 92.9031 125.229 93.0316 124.931 93.2827C124.47 92.7104 125.147 91.4783 125.603 90.9352C124.955 90.8243 124.371 91.4841 124.196 92.0214C123.524 91.2798 123.01 90.2579 122.981 89.8141C122.193 90.1002 123.501 92.3309 121.667 90.982C123.074 85.9601 120.896 90.1936 119.956 93.0783C119.553 92.5586 119.098 91.8404 118.718 91.2623C118.345 91.6009 117.772 91.8579 117.504 92.3659C117.375 92.1148 116.4 91.4374 116.295 91.1805C116.085 91.9163 116.745 94.8768 115.361 94.4973C113.959 94.1119 115.168 92.2666 115.115 91.3382C114.234 91.963 112.955 91.6535 112.231 91.9221C112.067 90.9936 112.371 89.5571 111.431 89.7732C112.038 91.2097 110.928 92.2258 110.578 93.6856C110.566 93.7323 110.847 93.3528 110.841 93.4053C110.368 93.5338 110.076 94.1761 109.328 93.8199C109.27 94.2112 108.382 94.6258 108.26 95.7878C107.635 96.1323 108.003 97.0199 107.787 97.271C107.185 97.9717 108.096 98.8477 106.514 98.7717C105.755 98.7309 105.597 97.4812 104.674 97.9893C103.028 98.9002 107.991 100.664 108.272 101.592C107.693 102.083 106.707 103.648 107.326 104.483C107.296 104.483 107.6 104.132 107.553 104.232C107.635 104.36 107.67 104.01 107.693 103.945C107.734 103.951 107.723 104.629 107.764 104.635C107.845 104.728 108.528 104.389 108.616 104.459C108.599 104.921 107.577 105.744 107.6 105.896C107.051 104.886 107.793 106.369 107.781 106.381C107.758 105.832 108.272 106.363 109.019 106.62C108.418 107.081 107.425 108.132 108.102 107.362C109.089 107.467 110.397 108.132 110.847 108.915C110.777 108.944 109.439 109.411 109.375 109.429C109.743 110.573 108.418 110.597 108.768 111.689C109.095 112.716 110.893 112.179 111.641 111.957C112.178 113.861 112.564 115.548 114.619 115.379C113.317 115.659 112.885 117.528 111.326 118.398C111.752 119.613 111.67 119.718 113.375 120.173C114 117.721 114.642 117.51 115.933 117.458C115.886 117.551 116.126 117.399 116.061 117.499C116.47 118.048 116.307 117.598 116.885 117.259C116.885 117.271 117.743 118.451 117.72 118.439C117.562 118.988 116.949 119.297 116.447 119.607C116.855 120.693 118.047 121.388 118.946 121.96C118.625 121.143 118.701 120.074 119.553 120.01C118.928 119.291 118.999 118.562 119.285 118.094C120.301 117.861 121.416 118.591 122.543 118.159C123.191 119.221 117.837 118.97 122.993 120.804C122.467 121.294 122.689 121.569 122.526 122.048C122.321 122.048 122.006 121.662 121.79 121.604C121.364 120.798 120.891 120.658 120.237 121.399C120.628 121.943 120.371 122.275 120.225 122.83C119.95 122.719 119.974 122.059 119.6 121.989C119.098 121.709 118.555 121.674 117.994 121.405C117.918 121.289 117.591 121.551 117.509 121.435C117.445 121.487 117.247 122.176 117.159 122.217C116.996 122.141 117.107 121.405 116.943 121.335C116.826 120.705 116.166 120.617 115.594 120.804C115.898 120.465 115.115 120.313 114.999 120.564C114.917 120.535 115.063 120.763 114.981 120.734C114.829 120.179 115.279 119.887 115.15 119.338C114.917 119.694 113.766 119.251 113.679 119.665C113.539 119.875 114.239 120.407 114.123 120.594C112.838 120.214 111.734 119.753 111.209 120.097C111.074 119.91 111.22 120.652 111.115 120.43C110.023 121.02 109.118 119.764 108.126 120.401C108.838 120.436 108.99 120.43 109.27 121.201C109.124 121.277 109.229 120.897 109.089 120.997C109.685 121.16 109.439 121.978 109.836 122.275C109.784 122.526 109.661 123.175 109.603 123.496C108.984 123.315 108.108 123.21 107.67 123.689C108.044 124.068 108.295 124.757 108.552 124.862C108.558 124.938 108.54 124.453 108.599 124.459C108.453 124.757 108.815 125.271 108.791 125.709C108.569 125.762 109.889 125.505 110.064 125.96C109.726 126.176 109.638 127.21 110.128 127.402C109.947 127.362 109.837 126.678 109.521 126.602C109.539 126.591 109.93 126.708 109.953 126.678C110.058 126.55 109.772 126.094 109.638 126.275C109.696 126.334 109.545 126.649 109.597 126.713C109.48 126.678 109.288 126.386 109.258 126.34C108.85 126.748 109.054 127.706 109.708 128.109C109.597 128.413 109.796 127.613 109.632 127.729C109.521 127.729 109.743 127.881 109.62 127.887C109.533 127.846 109.305 128.681 109.188 128.582C109.142 128.664 109.27 128.915 109.218 128.985C108.791 129.014 107.933 129.09 107.483 129.178C107.46 128.88 107.361 128.056 107.606 128.599C107.466 128.635 107.168 128.407 107.034 128.453C106.759 128.278 106.333 129.072 106.134 128.728C105.626 128.997 105.387 129.131 104.885 129.417C104.75 129.341 103.88 128.903 103.74 128.868C103.53 127.683 104.92 126.059 104.599 124.88C103.857 125.475 102.432 126.889 101.761 127.764C101.761 127.741 101.147 127.513 101.142 127.49C101.288 127.052 102.473 126.731 102.59 126.001C102.73 125.878 102.473 125.691 102.514 125.551C102.917 125.218 103.162 125.008 103.01 124.121C104.54 125.166 104.301 123.326 104.651 122.486C105.007 121.633 106.263 121.329 104.949 120.237C104.774 120.564 104.301 120.804 104.184 121.248C103.793 120.745 103.874 120.623 103.472 120.167C104.353 119.28 102.566 118.31 101.679 119.081C100.371 120.22 101.691 120.22 99.4307 120.477C98.2803 120.605 97.0423 121.183 96.2307 120.097C95.1971 118.713 96.8321 118.579 97.4569 117.376C95.6292 115.899 96.9314 115.724 97.5504 114.018C97.6613 113.709 97.4861 113.102 97.5737 112.74C97.6788 112.319 97.7781 111.94 97.8073 111.443C97.8599 110.503 97.3285 110.766 96.4818 111.023L95.9387 110.001C96.6628 109.312 96.1839 108.529 95.2788 108.635C94.9285 108.243 94.8934 106.912 94.8526 106.392C94.7942 105.604 95.1329 105.762 94.5606 104.985C93.6088 106.059 93.6029 107.011 93.965 108.453C94.035 109.189 93.9183 110.69 93.9066 110.713C93.5095 110.38 93.4745 109.75 93.0774 110.007C93.3226 109.283 92.7037 108.932 92.2949 108.413C92.3241 108.272 93.2818 106.737 93.1416 106.807C93.2175 106.853 91.5883 106.211 91.5883 106.246C90.6774 105.172 90.765 106.445 90.6131 106.246C90.8234 106.083 89.7022 104.635 89.9591 103.642C90.2161 103.28 90.5372 102.801 90.7066 102.41C90.7883 102.345 91.3664 102.567 91.4599 102.526C91.3898 102.526 91.4365 102.474 91.3839 102.468C91.4891 102.205 91.0044 102.708 91.0277 102.585C91.1971 102.783 91.4307 102.199 91.5533 102.439C91.419 101.505 91.1095 101.639 90.5197 101.937C90.5139 101.919 89.9124 102.053 89.9007 102.036C89.8891 102.013 90.4788 101.896 90.4146 101.983C90.2978 102.048 90.4788 102.386 90.3737 102.468C90.7241 102.129 90.2978 101.172 90.035 100.611C89.6029 99.6768 89.6204 100.354 88.9723 100.786C88.9723 100.611 88.7971 99.9922 88.7912 99.817C86.181 100.313 86.3387 97.0783 84.6686 96.0506C84.5985 96.6462 85.4803 99.2739 84.5168 99.2214C84.5869 99.1338 84.5986 98.836 84.6978 98.725C84.5577 98.5557 84.108 98.5907 83.7693 98.5849C83.3781 97.5805 82.835 95.0053 81.5212 96.2958C81.5445 96.4477 82.4496 96.5761 82.5139 96.7221C82.7766 96.6812 82.473 97.9659 82.765 97.9192C82.6365 98.2462 83.711 98.2403 83.7869 98.6024C83.7226 98.6549 82.4613 99.1221 82.4496 99.2039C82.5197 99.2272 83.3431 98.8418 83.4073 98.8652C83.5299 99.3031 83.1037 99.8579 83.2438 100.29C83.2847 100.897 84.0029 102.164 82.4964 101.826C82.438 101.983 81.4219 98.7834 81.4628 98.4331C81.0949 98.8068 80.7796 98.6958 80.4175 99.0754C80.4292 98.5615 80.0263 96.8214 79.8686 96.4068C79.5825 96.8973 79.4657 97.0258 79.1971 96.2316C78.1577 96.5002 76.1314 99.9571 76.2657 98.9236C74.5723 100.325 79.0161 99.5309 79.3431 99.2739C80.219 100.652 76.0905 101.242 75.8978 101.043C75.7694 101.183 76.0964 101.388 76.0146 101.528C75.5533 101.908 75.892 101.347 75.9329 101.878C75.9971 101.82 75.5358 101.978 75.6 101.931C75.4891 102.456 75.238 103.426 75.127 103.986C74.6657 103.367 74.4555 102.795 74.0234 102.164C73.9299 102.982 73.8423 102.836 73.0307 103.186C72.3533 102.369 72.3942 101.032 71.2263 101.481C69.9708 101.966 71.3723 103.262 71.565 104.027C71.6 104.173 71.5475 103.805 71.635 104.01C71.3022 103.683 70.5664 104.418 69.8015 105.154C69.5621 104.956 69.2234 104.43 69.1241 104.138C69.2292 104.016 68.5051 104.232 68.6044 104.103C68.2482 103.455 67.7168 102.497 67.1562 103.467C66.8409 104.01 67.5007 105.148 67.7985 105.236C67.6175 105.61 67.7285 106.053 67.635 106.626C66.9985 107.455 67.5124 108.921 68.4117 110.182C68.9723 111.694 70.0234 113.043 70.292 113.674C70.2453 113.744 70.0584 114.223 69.9883 114.287C68.7504 113.411 68.5402 109.802 66.911 109.814C67.3197 110.474 68.0672 112.045 67.9445 112.851C67.7577 114.106 67.454 113.47 66.9927 112.459C64.6336 113.732 67.5416 114.334 67.7635 115.046C67.8044 115.175 68.3416 114.783 68.219 114.994C67.4073 114.725 66.0759 114.748 65.2701 115.467C65.6847 116.191 66.3854 116.921 67.0044 117.172C67.0394 117.773 68.4526 118.404 68.3416 119.029C68.0263 118.836 67.6818 118.135 67.3606 117.75C67.2555 117.779 67.1737 117.452 67.0511 117.435C66.9343 117.341 66.4613 118.281 66.3737 118.223C66.3329 118.264 66.3153 118.071 66.292 118.112C65.7314 117.919 65.2467 117.58 64.7854 118.001C63.9621 118.748 65.3402 120.144 66.2102 119.519C66.2861 119.583 66.2044 119.163 66.2161 119.122C66.3037 119.408 65.6613 119.916 65.5912 120.343C65.7839 120.261 66.981 119.356 67.1854 119.262C67.565 119.589 67.9854 120.693 68.0496 121.183C68.0146 121.189 67.781 121.137 67.746 121.143C67.6292 120.798 67.1445 121.061 66.654 120.915C66.4905 121.055 66.3679 120.039 66.2336 120.179C66.0234 120.033 65.5095 119.887 65.3402 119.694C65.0307 120.097 64.7504 120.453 64.1898 120.582C64.0555 120.512 64.3766 120.512 64.2774 120.465C64.2248 120.395 64.1839 120.956 64.1606 120.886C64.5051 119.227 63.5942 117.423 62.9869 115.729C63.1387 114.912 62.5314 114.544 61.5212 113.248C62.1986 112.851 63.5825 112.045 63.4599 111.204C61.9708 111.227 61.5971 109.51 61.638 108.249C61.638 108.249 61.311 108.343 61.311 108.337C62.2394 108.383 61.8891 106.783 62.438 106.34C62.584 106.27 62.9927 105.896 63.1562 105.837C64.0905 105.726 64.4292 107.975 65.1591 106.626C65.2818 106.836 66.2219 107.56 66.3387 107.794C67.5358 105.832 64.8438 104.932 64.1606 103.572C63.4949 102.246 62.4964 102.281 63.3197 101.329C63.781 100.798 65.8891 100.395 64.9898 99.3206C63.9854 99.49 63.1913 100.559 62.4788 101.113C62.3095 101.032 62.8409 100.868 62.7766 100.816C62.7475 100.775 62.4613 101.621 62.4438 101.61C65.2818 100.36 61.7664 96.8914 59.9329 99.7936C59.5942 100.331 59.3664 102.813 58.473 102.643C57.1942 102.404 58.8701 99.7995 59.1445 99.1747C58.8642 99.4374 58.0876 99.5601 57.7898 99.8112C57.819 99.6944 58.1343 99.0287 58.2511 98.7309C58.0234 98.8768 57.819 98.7309 57.5854 98.8652C56.9489 97.8199 58.1168 97.5221 58.327 96.506C58.5139 95.6126 57.0774 93.8783 57.2 92.9732C56.7971 94.1352 56.4701 95.2447 56.254 96.5528C56.0905 97.5455 57.0657 98.2754 56.6628 99.2564C55.8861 101.148 54.508 102.597 54.8234 104.623C54.6832 104.512 54.911 104.471 54.7825 104.354C54.2511 104.745 54.4964 105.294 54.4029 105.849C53.7139 107.671 53.6263 110.188 53.4628 112.582C53.2993 113.037 52.7912 113.51 52.6686 113.972C52.3416 115.163 53.2175 115.665 53.2642 116.559C53.2467 116.973 52.2774 117.329 52.2599 117.621C52.219 117.884 52.9022 118.316 52.8204 118.614C52.8204 118.614 51.6234 118.258 51.6175 118.258C51.6058 118.31 51.9212 118.48 51.9095 118.532C51.8745 118.649 51.6058 118.702 51.565 118.83C51.2905 119.788 51.3956 123.724 52.8788 123.367C52.8964 124.121 54.0175 124.716 53.6672 125.51C53.5621 125.458 52.2715 125.452 52.1548 125.341C52.1548 125.341 51.8453 124.985 51.8394 124.985C51.8161 124.839 52.873 123.84 52.8146 123.7C53.1416 123.969 53.2292 124.821 52.4 123.881C52.2482 123.969 51.7285 123.391 51.7168 123.49C51.6876 123.443 52.8613 124.173 52.8263 124.126C52.7329 124.459 52.435 124.675 52.4526 125.09C52.3124 125.16 51.5124 125.207 51.4307 125.283C51.6117 125.814 52.3241 126.363 52.6336 126.982C52.9606 128.056 53.4277 128.757 53.784 128.932C53.7548 128.944 54.1285 129.528 54.3445 129.341C54.3445 129.341 53.527 128.325 53.5329 128.325C53.5562 128.302 54.5139 128.997 54.5431 128.973C55.2964 126.562 55.9854 124.973 56.7445 126.9C56.9723 126.982 56.5168 127.799 56.5694 128.722C56.5285 129.341 56.6978 130.053 56.9256 130.38C56.9489 130.509 57.2058 130.486 57.2409 130.608C57.2642 130.538 57.6788 130.929 57.708 130.853C57.7314 130.865 56.6161 130.526 56.6394 130.538C56.6745 131.239 57.5329 131.204 57.8307 130.62C58.1343 130.912 59.5183 132.886 59.3489 133.919C59.1329 134.089 58.1985 133.446 57.673 133.195C56.9139 132.839 55.927 131.951 55.2029 131.379C55.3139 131.776 55.6701 131.706 55.7285 132.167C54.835 130.281 53.1942 130.982 52.365 128.827C52.3241 129.23 52.9664 129.744 52.9956 130.375C52.9431 130.363 51.8161 130.41 51.7635 130.404C51.8336 130.509 53.0949 130.48 53.1475 130.591C53.2642 132.605 52.8788 135.373 53.4044 136.518C53.4102 136.529 53.819 135.928 53.9299 135.91C54.0175 135.975 55.2672 138.159 54.6657 138.41C54.0584 137.557 54.8117 137.516 54.3796 137.061C54.1518 137.224 53.8131 137.697 53.7723 138.094L54.7416 138.246C54.4088 140.267 55.7694 143.35 56.5402 145.353C56.6803 145.721 55.8161 147.776 56.0788 147.998C56.108 148.027 56.6277 147.414 56.6569 147.437C56.9723 148.179 57.2584 148.64 57.311 148.833C57.6613 148.5 57.6263 149.195 57.7139 150.24C57.5387 150.153 58.1051 150.188 57.9299 150.112C57.8715 149.995 58.1051 149.551 57.9007 149.259C57.9883 149.44 57.2234 149.995 57.3051 150.164C57.2526 150.141 57.2058 149.645 57.1533 149.61C56.6628 150.462 57.5679 151.899 58.3212 152.278C58.4321 152.529 58.4146 152.424 58.4964 152.617C58.7416 153.417 59.8745 153.948 60.2423 154.76C60.5577 155.461 61.2467 157.598 61.3168 155.525C61.4102 155.589 62 155.484 62.1402 155.595C62.2102 155.782 62.1285 156.01 62.1927 156.185C62.2161 156.091 62.0175 156.389 62.0526 156.278C62.2686 156.465 62.4496 156.529 62.6832 156.757C63.1971 157.872 63.4891 158.964 63.4832 158.147C63.5533 158.299 63.7694 158.602 63.7226 158.69C63.9445 159.157 65.5562 159.385 66.5723 160.056C66.6774 160.185 66.3796 160.827 66.4905 160.962C66.6307 161.049 66.9518 160.95 67.092 161.037C67.746 161.452 67.7518 162.118 68.0555 162.708C68.073 162.982 68.2774 163.081 67.9562 163.338C68.3475 163.928 69.5854 163.718 70.0292 164.22C70.0642 164.378 69.8248 164.868 69.9825 164.967C70.1402 165.289 69.5854 165.878 69.7664 166.205C70.3621 167.309 71.7577 167.7 72.9022 168.535C72.8146 168.337 72.2832 168.284 72.254 168.074C72.6861 167.887 73.0423 168.535 72.7037 167.502C72.7212 167.35 72.8964 166.597 72.9314 166.456C73.8715 167.14 74.5956 168.547 74.9168 169.592C74.8759 169.616 74.3329 169.417 74.3153 169.446C74.2745 169.429 73.7314 169.808 73.6964 169.82C73.7372 169.849 75.0745 169.721 75.1037 169.75C75.092 169.843 74.5781 169.913 74.7299 170.036C74.7825 170.159 74.3679 170.83 74.473 171.017C74.5489 170.97 74.6715 170.783 74.6307 170.661C75.8569 171.426 79.1796 172.816 81.7548 174.036H81.3285C81.8307 174.713 82.2803 176.086 83.5358 174.678C83.419 174.48 83.5766 175.379 83.4774 175.186C83.9504 175.472 85.3343 174.69 85.5971 174.959C85.1883 174.275 82.8934 173.884 82.6131 172.932C82.7766 172.763 83.4599 172.821 83.5883 172.781C83.711 172.81 83.6409 172.991 83.7343 172.979C84.3942 173.306 84.6394 174.17 85.5037 174.124C85.5037 174.036 85.8423 174.094 85.8657 173.989C85.9942 174.141 86.5489 174.509 86.5664 174.509C86.5139 174.445 85.9942 174.725 85.9066 174.62C85.965 174.398 86.0701 173.61 86.0993 173.405C86.508 173.785 87.2263 174.556 87.6175 174.953C87.5825 175.052 87.0453 175.624 86.981 175.718C86.6657 175.718 86.6891 175.472 86.2861 175.537C87.0803 176.413 87.0394 177.137 87.2788 177.359C87.3723 177.359 87.8336 178.083 87.927 178.089C87.927 178.048 87.7226 177.026 87.7577 177.008C88.1548 177.236 88.6394 177.353 89.1183 177.551C89.562 177.732 91.3489 178.316 92.0088 178.491C91.3664 177.475 89.4861 177.172 88.908 176.01C88.8964 175.893 88.9489 175.77 88.9372 175.613C89.4277 175.694 88.9197 175.046 89.2934 175.005C88.9139 174.497 89.2818 174.252 88.8672 173.808C89.5854 173.779 90.1927 174.491 90.8701 174.602C91.127 173.884 90.8292 172.985 91.2263 172.681C91.0394 174.9 96.7153 171.875 93.9124 174.871C94.6365 174.929 99.8569 174.229 97.854 176.36C97.0423 177.224 95.0453 176.278 95.7402 178.258C95.9679 178.906 96.9431 179.315 97.4686 179.712C98.0175 180.401 99.4599 180.372 100.277 181.049C101.48 182.287 102.286 183.204 104.242 183.835C105.258 184.162 106.391 185.575 107.255 185.779C108.166 185.995 108.937 185.154 109.877 185.289C109.533 185.078 109.066 184.827 108.774 184.541C108.966 184.348 109.492 184.909 109.737 184.862C109.866 184.897 110.023 184.862 110.105 184.792C110.981 184.781 112.359 184.792 113.147 184.541C112.885 183.91 111.419 183.221 110.812 183.029C111.495 182.386 111.296 181.499 110.385 181.277C110.858 180.132 111.927 180.792 112.68 180.378C113.142 180.126 113.147 179.21 113.597 178.848C113.118 178.9 113.381 178.626 112.861 178.433C112.762 178.398 112.867 177.283 112.505 177.172C112.044 177.032 111.209 178.672 110.829 178.585C108.307 178.024 109.62 176.629 110.993 175.724C110.38 174.573 107.355 178.018 105.685 177.207C102.677 175.747 105.837 174.497 106.601 173.294C107.034 172.991 107.518 173.014 107.734 172.833C107.927 172.816 108.242 172.5 108.418 172.541C108.248 172.062 107.682 172.436 107.203 172.202C107.15 172.226 107.092 171.653 107.039 171.665C107.156 171.578 108.061 171.478 108.155 171.379C107.98 171.157 107.022 171.28 106.683 171.175C106.683 171.134 106.736 170.924 106.736 170.883C106.566 170.883 106.502 170.194 106.403 170.199C106.234 170.164 106.403 170.264 106.234 170.246C106.128 170.089 106.158 170.305 106.053 170.147C105.982 169.908 105.515 169.405 105.539 169.178C106.199 169.563 106.339 170.322 107.104 170.345C107.238 169.575 107.028 169.143 106.444 168.833C106.467 168.699 106.228 168.062 106.298 167.922C107.635 167.747 108.371 168.132 109.743 169.236C110.794 170.083 112.085 171.694 110.508 172.308C110.654 173.919 111.004 172.056 111.74 171.77C112.99 171.286 113.72 171.525 115.069 171.951C115.787 172.179 116.867 172.068 116.032 173.271C115.863 173.516 115.582 174.626 115.18 174.591C114.415 174.223 114.239 173.522 113.912 173.762C113.936 173.785 113.515 172.623 113.539 172.64C113.445 172.629 113.831 173.283 113.755 173.283C114.187 174.474 114.893 174.462 115.921 174.562C116.149 174.608 116.295 175.268 116.528 175.286C116.762 175.326 117.293 174.667 117.498 174.754C117.714 175.035 117.574 175.753 117.889 175.887C117.79 175.91 117.743 175.683 117.644 175.718C117.691 175.94 117.936 176.343 118.216 176.267C118.677 176.699 119.15 176.494 119.734 176.167C120.079 176.202 119.734 175.963 119.723 175.683C119.723 175.683 119.781 176.068 119.787 176.068C119.968 176.424 120.844 175.782 121.001 176.144C121.55 175.326 122.479 175.245 123.139 174.731C123.857 174.392 124.307 173.475 125.007 173.072C125.218 173.002 125.731 173.557 125.965 173.499C127.711 173.061 130.455 172.413 131.162 170.451C130.596 171.029 131.028 170.766 130.578 170.275C130.829 170.071 130.438 170.053 130.514 169.972C129.918 169.201 130.327 169.218 130.152 168.839C130.234 168.156 130.356 166.976 130.526 166.521C129.947 166.503 129.072 167.945 128.82 168.623C127.361 167.864 129.072 165.213 128.972 163.916C128.861 162.462 127.565 161.475 126.52 160.383C124.908 161.253 124.961 162.999 122.911 161.359C122.759 162.018 122.339 161.54 121.696 161.651C121.206 161.651 120.277 161.919 119.945 161.89C120.318 161.674 122.812 159.741 122.788 159.502C122.701 158.544 121.463 158.766 120.978 159.245C120.961 159.216 120.879 159.157 120.861 159.128C120.669 159.315 120.038 159.087 120.108 159.128C120.026 159.251 120.599 159.169 120.546 159.332C120.079 158.789 119.904 157.983 119.419 157.651C119.238 157.528 118.578 157.908 118.42 157.937C117.41 156.629 116.791 155.081 115.477 154.848C115.507 154.801 114.812 155.589 114.847 155.548C114.461 154.684 114.356 154.562 113.796 155.198C113.784 155.198 113.381 155.735 113.369 155.735C112.505 155.07 112.312 154.03 111.442 154.848C111.915 155.875 111.904 155.852 112.067 156.588C112.079 156.705 113.136 156.716 113.147 156.833C113.147 156.897 112.815 157.043 112.809 157.113C112.709 158.258 111.542 157.756 112.546 158.713C113.036 159.181 112.669 159.998 113.066 160.109C113.311 160.442 113.451 160.722 113.778 161.172C113.778 161.44 113.965 161.738 114.204 162.007C114.315 162.129 115.092 161.68 115.291 161.709C116.634 163.636 117.918 165.435 116.12 163.945C116.213 163.321 114.952 163.548 114.181 163.216C114.199 162.994 114.269 162.702 113.691 162.924C113.702 162.941 113.509 162.994 113.521 163.011C112.961 162.842 112.201 163.134 111.635 163.035C111.635 162.947 111.705 162.889 111.6 162.935C110.596 162.778 109.013 162.059 108.961 162.013C108.99 159.233 102.683 162.696 101.79 159.075C102.747 158.491 104.896 158.994 104.02 157.639C103.904 157.656 103.746 156.938 103.647 156.932C104.634 155.624 102.35 154.813 100.873 154.135C101.118 152.138 99.781 152.991 98.508 152.745C99.0628 153.306 99.5007 153.621 100.272 153.89C100.353 153.989 100.634 153.867 100.785 154.053C100.534 154.322 100.236 154.614 99.9912 154.906C99.5182 154.176 98.2277 153.96 97.6204 154.386C97.8774 154.959 99.0978 155.478 99.5066 155.881C99.5183 155.928 99.3606 156.284 99.3723 156.325C98.8934 156.36 97.7606 155.531 97.4803 155.683C96.6569 156.126 98.035 157.166 98.7066 157.16C97.7431 158.456 96.435 156.547 95.2788 156.413C94.6307 156.337 93.9475 157.96 93.2175 157.884C92.6686 157.832 91.9212 156.827 91.3431 156.699C90.6365 156.541 89.492 156.296 88.6803 156.074C88.4876 155.975 88.4876 155.794 88.3124 155.677C87.8745 155.245 87.7752 155.472 87.927 155.169C88.1139 155.268 88.1548 154.935 88.2482 154.912C88.108 154.795 88.0672 154.807 87.9796 154.725C88.2307 154.433 88.8496 154.801 89.3518 154.859C89.235 154.608 88.6394 154.486 88.4584 154.281C88.2073 154.404 87.3723 154.281 87.127 154.41C86.7708 153.522 87.9504 152.57 88.6044 152.08C87.9445 150.795 86.8934 151.589 86.1402 152.156C86.1285 152.167 86.5139 153.055 86.508 153.067C86.4146 153.078 86.0642 152.395 85.9766 152.483C85.6146 152.646 86.1402 152.95 85.784 153.58C85.6204 153.872 85.3869 154.001 85.3985 154.281C85.2175 154.392 85.8715 154.281 85.9533 154.801C85.9416 154.836 84.7621 154.766 84.7387 154.801C84.4759 155.286 83.2964 156.886 82.7299 156.751C80.9781 156.331 82.9927 155.134 83.0745 154.451C81.2409 154.41 81.4453 155.326 80.3416 155.262C79.8861 155.011 78.9927 155.729 78.5898 155.484C78.4788 154.912 80.2599 153.563 79.9153 152.745C79.1796 152.74 78.2161 153.633 77.673 154.059C77.2818 153.779 76.4759 153.481 76.3883 153.3C78.0759 151.741 77.6613 152.956 76.8321 152.921C76.8788 152.705 76.8029 152.751 76.7796 152.605C76.5577 152.652 76.5051 152.576 76.254 152.705C76.1898 152.617 75.9854 152.623 75.9737 152.477C77.2526 153.108 77.2876 151.846 78.3153 151.566C78 151.367 75.6759 148.862 75.5299 148.15C76.8029 148.506 78.2745 148.786 78.4555 148.675C78.6015 148.804 78.4847 145.662 78.1927 145.166C80.6219 147.105 80.2307 147.379 82.4088 150.188C82.181 153.154 91.2672 149.627 90.4263 148.191C89.4394 147.291 87.892 149.435 87.6467 150.001C87.6058 149.855 86.2569 149.259 86.0292 149.329C86.3504 148.979 87.2672 148.494 86.4555 148.722C86.0876 147.835 88.9489 148.08 86.1752 147.274C84.7387 148.086 85.8657 148.016 84.2891 148.401C84.0555 147.852 85.6204 145.703 85.6029 145.738C85.4336 145.627 80.838 143.414 83.6409 143.437C83.4949 142.883 79.8453 141.756 79.6059 141.563C82.9402 143.274 80.6569 138.55 79.9854 138.036C80.1781 138.106 80.108 138.632 80.2715 138.69C80.3066 138.725 80.4526 138.521 80.4701 138.562C80.4934 138.532 80.7854 137.662 80.7971 137.645C82.6599 138.235 82.6365 138.474 83.5942 139.192C84.8321 137.89 83.9796 136.202 84.6628 135.543C85.1241 136.051 85.2526 136.173 84.9256 136.313C84.9197 136.313 84.3066 135.467 84.2949 135.472C84.4934 135.291 85.7664 135.724 86.2861 135.712C85.854 135.058 85.819 134.778 86.3562 135.18C85.3694 132.465 84.581 138.351 84.0672 133.178C84.5694 134.912 84.0029 133.44 83.8745 132.903C84.8029 133.989 86.4321 135.432 86.4438 133.832C86.765 133.762 88.1431 134.059 88.511 134.567C92.581 134.421 89.3577 134.182 87.9445 131.823C88.3591 131.449 88.5869 131.402 87.7927 131.548C87.6234 131.84 86.5956 131.905 86.5139 132.086C86.1168 131.192 86.7124 129.405 87.4715 128.021C88.1606 129.388 91.2905 134.526 92.2715 134.585C92.7504 136.144 92.546 136.395 92.7504 136.985C94.2102 137.528 93.3985 132.407 91.8861 132.635C91.781 132.921 92.762 134.106 92.8029 134.217C92.692 134.287 91.1854 134.748 90.981 134.976C90.3212 134.001 90.4788 131.589 90.6774 130.486C92.2774 131.14 90.5139 132.728 92.3299 132.436C92.6161 133.032 91.092 129.131 90.3387 127.729C91.5358 128.705 92.5694 130.579 92.3358 131.105C92.5226 130.877 92.692 130.147 92.8905 129.779C93.4686 129.697 93.8131 134.404 94.6891 133.364C94.8467 133.668 95.2672 131.029 95.5825 129.423C95.6059 129.446 94.4672 128.973 94.508 128.991C94.5723 128.862 95.3548 129.061 95.2905 128.944C95.419 128.413 95.0745 128.004 95.3139 127.84C97.3343 131.268 95.1387 128.144 95.9504 130.334C96.838 129.586 96.5635 130.678 96.9781 131.058C97.6204 129.055 99.0511 131.338 99.4015 130.567C99.0861 129.534 97.3402 127.642 98.6657 126.246C98.8175 126.182 98.5372 125.726 98.5314 125.627C98.6891 125.505 98.4088 125.797 98.619 125.686C98.6657 126.223 99.092 130.293 100.493 130.065C100.026 130.608 99.9621 131.005 99.5708 131.058C99.9037 131.14 99.6292 130.398 99.9387 130.182C99.9328 130.252 100.645 131.18 100.639 131.256C100.528 131.338 99.7577 131.105 99.6175 131.186C99.781 131.309 100.336 131.321 100.412 131.42C100.412 131.589 100.692 132.191 100.704 132.337C100.382 132.629 98.2803 132.389 97.8482 132.483C98.3445 132.921 99.5708 133.972 100.394 133.691C101.077 133.458 101.223 132.372 101.953 131.916C102.07 131.945 101.837 131.058 101.924 131.145C102.105 131.011 102.531 132.021 102.747 131.945C102.818 132.033 102.607 131.887 102.66 131.975C102.695 132.056 103.466 131.829 103.501 131.916C103.705 132.506 102.777 133.189 102.327 133.621C102.584 133.639 103.524 133.329 103.804 133.359C103.828 133.429 102.905 134.013 102.917 134.129C102.759 134.416 103.542 135.449 103.542 135.747C101.667 136.004 103.25 137.312 104.931 138.299C104.996 138.38 104.564 137.884 104.581 137.919C101.965 139.94 106.893 142.737 106.426 143.216C105.784 143.017 105.282 143.443 104.78 143.893C104.418 143.735 105.959 144.173 106.637 144.658C106.234 144.868 104.891 146.083 104.558 146.287C104.114 145.832 104.044 145.078 104.032 145.154C102.724 145.487 102.993 144.915 104.225 145.691C103.945 145.505 103.507 145.867 103.22 145.861C102.964 145.563 102.28 145.902 102.175 145.522C102.257 145.324 102.66 145.178 102.432 145.23C102.391 145.23 101.86 144.436 101.889 144.413C103.022 143.548 104.885 141.528 104.12 142.147C103.921 141.913 103.074 142.1 102.66 142.118C101.58 141.131 100.745 139.7 99.0803 140.179C99.5183 140.623 99.746 140.938 99.9912 141.557C98.7883 141.721 98.3971 142.34 97.1708 141.943C96.5694 143.005 97.1066 144.588 98.1635 144.775C98.7766 145.16 99.9095 143.472 99.9621 144.792C99.8277 144.868 100.219 145.721 100.126 145.826C99.9621 145.779 99.8511 144.967 99.9621 145.067C99.927 145.049 99.6584 145.178 99.2321 145.382C99.5358 145.738 99.1679 146.585 99.5533 147.017C99.4015 146.994 99.9445 146.351 99.8219 146.381C98.9752 146.591 98.5314 146.41 97.8774 146.935C98.7124 148.366 100.295 147.21 101.171 148.74C101.679 148.167 101.895 148.798 102.455 149.008C102.59 149.137 103.028 148.197 103.127 148.185C103.244 148.261 102.8 149.51 102.917 149.575C103.104 149.756 103.641 149.82 103.892 149.826C103.927 149.837 104.523 149.055 104.558 149.067C105.101 149.773 105.492 150.818 106.222 150.912C106.117 150.48 105.533 150.182 105.346 149.738C105.381 149.726 106.187 149.143 106.222 149.131C106.818 149.388 107.145 149.569 107.764 149.277C107.799 149.154 108.015 148.962 107.997 148.833C108.237 148.932 108.359 149.294 108.61 149.37C108.564 148.658 107.705 147.975 107.226 147.525C108.05 146.719 109.679 146.947 110.35 147.957C110.607 147.648 110.473 147.274 110.455 146.853C110.111 146.737 110.549 146.497 110.321 146.381C112.067 145.592 112.161 144.366 111.81 142.848C112.114 143.099 116.575 144.769 114.409 142.626C114.21 142.789 114.771 143.151 114.613 143.338C114.543 143.251 114.642 142.532 114.666 142.345C114.724 142.27 114.625 142.106 114.607 141.983C114.952 140.658 116.032 138.322 113.755 139.28C113.486 139.397 113.451 140.126 113.317 140.313C112.704 140.337 111.571 140.745 110.753 140.652C111.104 140.553 111.366 139.887 110.508 140.278C110.391 140.232 110.309 140.313 110.199 140.202C109.807 139.28 110.619 139.046 111.039 139.023C110.771 138.672 110.058 138.129 109.62 137.709C109.556 137.458 109.328 136.956 109.293 136.74C109.766 136.664 110.152 136.483 110.724 136.635C110.782 136.091 110.111 136.185 110.21 135.764C109.673 134.889 108.505 136.109 107.518 136.664C107.483 136.629 107.886 135.689 107.863 135.63C107.828 135.548 107.676 135.064 107.664 134.976C107.723 134.924 107.133 135.391 107.215 135.367C107.39 135.437 107.781 134.602 107.968 134.783C107.927 134.643 107.88 135.245 107.857 135.122C108.511 135.181 108.645 134.766 109.007 133.954C108.931 133.744 109.58 133.896 109.422 133.621C109.766 133.563 109.509 132.886 109.947 132.827C111.915 132.541 111.01 132.559 110.543 130.748C111.366 130.486 112.639 132.021 113.41 132.5C113.545 131.735 112.166 129.931 111.664 129.037C111.775 129.032 111.886 128.997 112.02 129.002C112.505 129.108 113.136 128.722 113.574 128.599C115.326 128.839 117.883 130.235 118.093 130.31C118.023 130.036 120.003 128.237 120.126 128.36C118.637 129.364 123.226 127.998 122.631 127.291C122.286 127.21 121.632 127.163 121.778 127.537C121.615 127.525 122.111 125.417 122.508 125.189C122.455 125.399 122.806 125.732 122.888 126.036C124.05 125.773 123.909 125.026 123.647 124.477C123.927 124.909 124.073 125.131 125.072 124.518C123.874 122.386 125.527 120.138 124.371 117.954C123.927 118.229 123.109 117.779 122.987 117.294C124.914 116.962 124.009 115.887 122.52 115.297C122.473 115.245 122.339 115.467 122.251 115.467C121.521 115.233 120.347 114.585 119.822 115.175C119.816 115.175 119.781 114.9 119.728 114.97C119.53 115.07 119.069 115.508 118.747 115.875L120.061 116.804C120.283 116.401 119.542 115.823 119.536 115.776C119.507 115.764 119.127 114.62 118.695 114.386C119.904 114.398 122.777 114.754 125.048 113.773C125.212 113.744 124.978 113.306 125.124 113.283C125.364 113.68 125.556 114.713 125.924 114.947C127.197 115.759 127.051 114.24 127.168 114.03C127.425 113.58 126.952 112.588 127.308 112.261C127.407 112.29 127.495 112.337 127.705 112.027C127.705 112.021 127.705 111.87 127.693 111.864C128.108 111.537 128.931 111.735 129.404 111.402C129.743 111.262 130.047 111.157 130.111 111.163C129.655 111.624 130.315 111.613 131.15 111.589C130.345 111.91 131.22 113.277 131.08 114.275C130.993 114.159 130.181 113.902 130.134 113.861C130.012 113.02 128.82 112.886 127.962 113.954C128.371 114.351 128.861 115.613 129.761 116.144C129.655 117.499 128.248 116.453 128.213 116.494C128.622 116.88 127.267 119.023 127.279 119.075C127.781 118.964 130.444 119.782 130.712 120.103C129.982 121.137 133.965 124.226 134.193 123.829C133.486 124.541 134.018 124.249 132.908 124.827C133.562 126.053 133.825 124.798 133.644 126.071C133.434 126.17 134.496 126.509 134.491 126.76C134.491 127.35 134.899 128.646 135.22 129.189C135.553 128.559 135.606 127.122 136.061 126.486C136.961 127.461 137.066 127.957 138.164 128.004C138.765 128.635 139.501 129.16 139.431 129.02C139.816 128.938 140.172 128.197 140.54 128.062C140.891 128.646 140.709 129.072 141.784 128.926C142.578 128.816 143.25 127.864 144.283 128.751C144.418 128.71 144.266 128.886 144.406 128.903C145.428 130.398 146.672 129.989 146.035 128.343C145.93 128.068 146.59 126.953 146.047 126.562C146.345 126.661 146.946 127.268 147.232 127.508C146.928 126.754 145.772 125.575 145.942 124.786C146.257 125.312 147.378 128.237 148.33 128.909C149.177 129.709 151.425 129.318 151.168 127.624C151.08 127.058 150.199 126.643 149.743 126.176C149.761 126.094 149.971 125.639 149.895 125.557C149.86 125.58 149.796 125.744 149.772 125.762C149.691 125.656 149.924 125.691 149.895 125.575C149.895 125.47 150.263 125.592 150.263 125.487C150.321 125.265 149.515 124.021 149.936 123.753C150.152 123.893 150.701 124.973 150.893 125.072C151.542 124.144 150.899 122.889 150.356 122.299C150.222 122.153 149.796 122.345 149.58 122.141C149.545 120.191 149.877 118.456 149.615 117.697C150.333 115.07 155.209 119.408 154.782 115.093C155.582 115.338 157.521 115.385 158.309 115.852C157.842 114.094 155.612 115.274 156.184 113.429C156.435 113.902 157.042 114.048 157.597 114.089C157.533 113.995 157.428 113.464 157.282 112.745C157.381 112.605 157.428 112.903 157.469 112.716C157.58 112.886 157.031 112.921 157.165 113.253C157.288 113.756 157.959 113.756 158.128 113.68C158.508 114.608 158.876 115.04 159.454 115.011C159.723 114.999 160.242 115.157 160.447 114.941C161.661 116.588 162.683 118.153 163.547 119.613C163.588 119.84 163.25 120.132 163.285 120.413C163.378 121.289 163.145 123.712 164.359 122.678C164.581 122.491 164.92 122.62 164.937 122.258C166.018 121.604 166.923 120.71 167.81 121.242C168.336 122.223 167.495 124.313 168.312 125.248C168.914 124.979 168.482 123.759 168.312 123.233C168.336 123.175 169.159 122.871 169.177 122.818C169.866 123.344 170.946 123.724 171.816 124.243C172.242 123.326 171.933 121.82 171.255 121.551C170.864 120.833 170.385 119.858 170.374 119.613C170.893 120.226 171.629 122.486 172.768 121.481C172.569 120.471 172.429 118.159 172.564 116.068C172.803 116.051 172.564 116.57 172.733 116.611C173.042 116.687 173.755 116.535 173.778 116.535C174.66 116.483 175.121 115.887 174.823 114.941C174.601 114.223 172.82 113.954 172.085 113.259C172.178 112.395 172.663 111.864 172.75 111.443C173.317 111.881 173.562 112.459 174.239 112.617C174.298 112.296 174.193 111.665 174.315 111.297C174.596 110.743 175.6 110.094 175.53 109.189C175.647 109.067 175.191 108.973 175.18 109.055C175.279 108.167 174.806 107.449 173.988 107.122C173.778 106.328 174.111 105.09 173.79 104.296C173.737 104.068 173.463 104.115 173.457 103.881C173.41 103.951 173.807 103.332 173.772 103.42C173.726 103.297 174.07 103.782 174.023 103.659C174.023 103.455 173.755 102.964 173.626 102.959C173.509 102.69 173.036 102.818 172.908 102.567C172.972 102.293 173.001 102.188 173.153 101.937C174.199 102.071 174.613 100.699 174.158 100.197C174.304 100.197 174.058 100.635 174.105 100.681C174.152 100.214 173.364 99.3907 172.961 98.5615C172.984 97.2243 170.934 95.5951 170.38 94.7951L170.362 94.7776ZM107.962 104.202C107.962 104.202 107.974 104.039 107.974 104.016C107.991 104.039 108.47 104.167 108.488 104.191C108.47 104.191 107.98 104.202 107.962 104.202ZM121.731 124.302L121.632 124.226L121.854 123.835L121.731 124.302ZM118.788 115.537C118.788 115.537 118.695 115.373 118.683 115.35C118.8 115.309 119.343 115.624 119.366 115.665C119.291 115.712 118.835 115.513 118.788 115.543V115.537ZM134.683 126.147C134.747 126.077 134.905 125.931 134.981 125.884C134.934 125.954 134.771 126.1 134.683 126.147Z" fill="#E6E6E6"/>
</g>
<g style="mix-blend-mode:multiply" opacity="0.72">
<path d="M187.157 123.501C187.735 122.555 187.507 114.753 185.44 111.693C180.839 114.893 183.104 127.629 184.699 133.323C185.802 132.925 186.585 126.94 187.513 128.09C186.59 128.131 186.31 127.775 186.672 127.016C187.174 127.109 187.653 127.29 188.097 127.553C187.928 126.578 187.782 124.365 187.157 123.501C187.647 124.178 187.239 123.366 187.157 123.501Z" fill="#E6E6E6"/>
<path d="M183.28 112.172C182.749 112.435 182.649 114.228 183.502 114.409C184.284 109.889 183.624 110.514 182.702 106.695C183.916 106.66 184.518 107.618 185.201 107.133C184.699 106.66 184.156 106.24 183.578 105.866C184.109 105.837 184.635 105.813 185.166 105.796C184.57 102.677 181.458 102.315 182.264 99.3373C180.956 97.4921 179.893 101.615 180.419 101.124C178.784 100.172 177.662 94.222 173.686 94.0293C175.052 100.009 181.832 107.945 183.28 112.167C183.257 112.096 183.297 112.155 183.28 112.167V112.172Z" fill="#E6E6E6"/>
<path d="M160.967 108.925C158.964 112.61 166.053 119.074 167.671 114.093C168.05 114.811 168.64 115.279 169.434 115.5C169.569 115.156 170.666 112.499 170.964 112.283C174.573 117.054 173.884 101.579 169.931 106.309C170.351 103.261 165.831 95.9501 161.598 97.7486C162.106 98.7471 162.9 99.372 163.98 99.6347C163.624 99.8683 163.274 100.102 162.918 100.335C165.347 100.312 166.76 103.851 166.264 106.105C167.297 106.198 162.415 103.442 163.554 104.756C163.507 103.5 163.718 102.233 163.607 100.937C163.542 100.96 161.142 102.286 161.382 101.789C161.995 102.969 162.485 104.201 162.847 105.486C162.357 105.772 160.407 102.753 160.15 104.592C160.074 105.153 156.272 109.684 160.967 108.925C160.103 110.519 159.729 109.124 160.967 108.925Z" fill="#E6E6E6"/>
<path d="M176.226 119.664C176.343 119.635 176.494 124.015 176.518 123.991C175.391 124.745 174.562 124.406 174.019 122.981C173.067 124.342 176.629 128.453 173.067 128.085C171.443 122.38 165.137 126.146 162.871 123.723C163.146 123.547 164.226 123.004 163.916 122.491C163.005 124.639 161.294 121.813 160.874 123.594C160.681 123.326 163.087 128.733 162.229 129.346C161.954 129.001 161.598 128.832 161.16 128.844C161.563 128.266 161.785 127.623 161.832 126.917C161.849 126.969 159.151 131.466 159.233 132.114C159.607 131.968 159.986 131.816 160.354 131.664C157.581 128.534 159.922 129.451 160.564 124.295C159.7 124.955 159.356 124.931 159.537 124.219C158.129 124.826 156.746 125.492 155.385 126.21C156.121 125.889 156.611 125.358 156.868 124.61C155.07 124.564 155.589 124.283 155.788 122.368C156.64 122.841 157.522 122.864 158.421 122.432C158.649 121.615 158.357 121.031 157.54 120.68C158.118 120.564 159.385 120.949 160.004 119.746C158.608 119.273 155.724 118.677 155.496 115.834C154.439 115.775 153.762 116.254 153.475 117.27C154.334 117.13 152.401 112.528 152.436 112.044C151.198 112.085 147.589 112.669 148.687 115.069C147.461 113.182 146.521 116.055 146.602 116.873C145.341 115.98 143.227 114.467 142.497 113.86C141.849 113.317 141.073 108.791 139.835 110.345C139.706 106.385 141.341 106.158 138.188 103.349C139.735 102.292 139.303 99.7285 136.477 99.4891C136.208 102.397 137.516 100.768 135.268 101.55C135.397 100.639 135.881 99.9912 136.722 99.6117C134.889 100.756 134.229 100.085 134.731 97.6029C129.668 97.4686 138.731 98.3212 134.305 96.184C132.944 97.0774 131.776 98.1927 130.801 99.5241C129.983 96.6745 128.179 98.7591 128.138 96.4117C128.01 97.7956 127.332 98.7066 126.1 99.1504C125.738 97.9533 126.036 96.9489 127 96.1256C119.058 98.111 127.087 93.7606 124.197 93.311C124.214 94 122.083 96.8964 122.357 96.4701C120.156 96.2307 116.576 98.2686 115.081 98.4613C118.024 98.0759 115.21 105.568 115.181 105.469C115.391 105.399 115.566 105.276 115.706 105.101C115.286 105.784 115.502 106.058 116.366 105.918C116.401 105.837 114.906 107.209 114.877 106.707C114.959 107.985 117.032 107.612 114.813 108.505C115.42 107.571 116.086 108.365 116.816 110.882C115.7 110.876 114.024 111.08 113.925 112.692C113.954 112.254 117.861 118.245 117.948 118.274C115.583 117.872 112.22 120.102 115.099 122.274C116.588 120.166 117.814 121.107 119.344 120.855C119.513 123.956 116.325 121.474 119.548 125.982C119.548 122.327 122.287 123.752 124.191 123.769C123.531 124.166 122.813 124.371 122.042 124.382C123.963 125.422 124.214 126.42 122.789 127.378C120.956 126.631 121.972 125.042 120.413 127.261C118.889 125.761 119.543 125.533 117.832 125.556C116.588 124.248 116.874 123.168 117.026 122.14C116.524 122.508 115.975 122.677 115.642 122.934C115.099 122.502 111.28 120.342 110.235 120.552C113.598 122.099 108.921 123.302 108.635 123.442C109.166 124.721 110.211 127.512 109.283 126.829C110.054 126.736 109.271 127.069 109.137 126.485C108.862 128.418 108.816 128.891 108.985 127.91C108.366 127.688 106.941 130.134 106.819 127.974C105.405 127.799 104.337 127.594 103.192 126.8C103.975 125.702 104.71 124.569 105.405 123.407C103.718 125.55 102.357 125.936 101.312 124.558C102.287 123.361 108.559 121.41 107.379 119.22C107.934 118.742 103.011 117.533 102.994 117.51C99.6243 112.943 101.51 117.749 101.329 111.997C101.213 108.26 104.658 106.245 103.338 101.212C100.635 102.607 102.421 105.042 100.699 106.292C99.6769 104.382 99.1922 97.8307 101.394 97.7898C100.629 97.4161 101.534 97.9475 101.51 97.7431C101.23 97.1066 100.775 96.7796 100.144 96.7621C100.699 96.7445 100.792 96.9372 100.424 97.3402C101.61 96.8496 97.9251 89.8423 97.5105 89.2759C97.4988 90.4438 97.0784 91.4131 96.2375 92.1664C96.1032 92.2482 96.1149 87.6701 94.5441 88.3475C94.4681 88.7153 95.8754 90.8 95.7878 91.3256C95.309 91.3256 94.8302 91.3489 94.3514 91.3956C94.9003 91.8628 94.8127 94.7942 93.4579 93.8482C98.801 87.7869 87.747 89.0774 88.5003 89.5679C89.4521 90.0234 90.4448 90.2745 91.49 90.3212C91.2448 89.0482 86.5733 92.1548 85.9484 93.1475C85.8842 92.908 84.1324 89.3927 83.2798 89.381C81.9601 89.3694 82.7426 91.4774 82.7484 91.8803C83.2389 92.9956 78.5324 89.9825 78.8535 89.7256C76.9791 91.2438 78.4623 100.534 77.5747 100.82C77.563 98.9635 77.1601 97.1942 76.3601 95.5299C77.0725 97.2467 76.8331 98.473 75.6477 99.2088C75.8287 97.7664 75.3733 97.5971 74.2871 98.6949C74.2871 98.6949 75.2156 101.223 75.7061 100.826C70.2112 96.1431 74.9119 103.752 74.3806 104.622C73.8784 103.945 73.1076 101.743 71.4959 102.362C71.455 102.38 71.7353 104.254 71.4024 104.832C72.8273 104.809 74.1703 103.185 73.347 106.52C71.7178 106.298 71.928 104.838 70.0419 104.534C70.2754 104.371 70.2287 104.464 69.9017 104.809C72.6229 100.564 70.0711 94.6423 71.782 92.0905C72.7806 92.5518 76.1732 88.5226 76.5645 93.4394C78.2638 92.1314 75.8638 88.2657 75.8813 86.7475C75.8813 86.2569 82.8652 83.5708 75.4316 85.8015C76.0389 85.4803 75.9689 85.6263 75.2273 86.2511C82.9003 85.9591 68.2083 83.8219 71.2273 85.7489C71.2156 84.3825 71.8346 83.3898 73.0842 82.7708C71.1397 83.5533 72.3893 78.3679 73.528 76.2891C67.9981 82.8526 64.8681 92.3533 60.366 98.508C60.0448 98.2511 59.7178 97.9942 59.3966 97.7314C58.4973 99.0511 59.5893 104.312 58.6842 105.229C57.8375 105.153 57.3411 104.768 57.201 104.061C57.2652 103.752 59.3207 102.87 58.5616 103.816C58.2462 103.419 57.9309 103.022 57.6214 102.625C57.5747 102.362 56.8039 109.422 57.9251 109.031C57.7966 108.616 57.6681 108.201 57.5455 107.787C58.2871 109.504 59.1689 109.136 60.1908 106.689C60.8973 106.274 60.1441 111.98 60.4535 111.682C59.1105 109.883 61.9309 113.288 60.8565 115.133C58.8711 115.723 58.8594 109.399 58.1762 112.172C57.4462 110.771 56.8156 109.323 56.2959 107.828C56.8331 109.55 56.4594 109.965 55.1864 109.072C55.2389 109.305 54.8827 117.574 54.9762 117.574C55.0054 117.112 55.0754 116.657 55.1981 116.213C55.5076 116.131 52.4827 126.304 52.8448 126.999C52.4185 126.181 54.0944 129.953 53.7849 129.65C53.6331 128.038 53.9718 129.93 53.2535 128.896C51.1397 130.613 60.6462 150.66 60.4302 151.623C61.2827 151.6 60.8565 151.466 61.6273 150.368C64.4302 154.864 62.7076 153.854 61.1251 153.772C61.563 153.924 62.001 154.076 62.4389 154.222C61.9192 154.28 61.5747 154.596 61.4112 155.168C61.0141 155.244 70.0711 162.707 70.1586 162.934C69.3703 162.023 68.7046 161.031 68.1557 159.95C69.347 159.401 70.3455 162.467 71.2039 162.876C70.2696 162.888 70.2638 162.491 71.1747 161.679C71.7645 162.934 69.4988 165.883 71.1747 166.707C71.963 164.937 73.2944 167.489 74.7601 168.581C74.5849 167.664 73.8258 163.74 73.563 163.063C77.0433 164.312 77.9776 164.131 81.3587 167.53C78.1061 164.266 81.2944 173.766 81.3995 174C83.2565 178.076 85.3119 179.53 88.6579 181.474C87.1222 179.437 90.2287 181.872 91.9105 181.982C91.8404 179.074 92.0565 179.291 92.3659 177.79C92.3017 178.105 95.4667 176.108 93.9484 174.899C93.2535 175.086 92.5762 175.32 91.9105 175.594C90.509 174.041 90.9003 173.171 93.0842 172.996C92.9849 172.126 85.3295 173.959 87.0404 170.654C87.5076 169.755 90.8944 168.4 91.8638 169.089C91.9572 166.712 89.3178 169.153 92.0389 167.91C91.5251 166.111 88.5061 165.27 91.4492 166.561C91.2798 165.691 91.3207 164.838 91.5776 164.009C93.9192 164.61 95.9338 168.844 94.0594 170.193C95.3849 169.241 98.0185 170.339 99.017 171.647C98.7484 172.523 98.182 173.136 97.3061 173.474C95.4725 171.454 97.1776 172.558 96.5003 171.057C98.9878 172.488 98.3572 175.454 100.897 176.616C101.4 176.85 112.021 177.077 113.382 175.507C111.747 176.248 114.468 171.308 114.205 171.618C113.271 171.752 112.5 172.196 111.899 172.943C113.108 174.362 111.256 162.888 111.735 164.797C111.747 164.832 106.871 163.769 106.194 163.413C107.385 163.15 108.541 162.759 109.645 162.239C110.024 160.908 107.875 161.521 107.332 160.902C108.062 160.388 103.128 152.861 100.944 153.737C100.401 154.987 100.687 155.81 101.791 156.207C100.127 160.371 102.141 160.114 102.602 164.342C102.182 160.482 90.0302 158.654 90.6141 154.105C95.0229 153.346 92.9966 149.031 89.8842 147.01C90.2521 147.857 90.7893 148.546 91.4959 149.066C89.2711 150.158 90.6842 147.676 88.4827 148.207C88.728 153.41 90.6083 149.048 87.893 149.364C87.3733 150.128 87.5718 150.736 88.4827 151.191C85.9543 152.797 77.166 143.635 80.763 145.615C80.436 144.774 79.8112 144.359 78.8886 144.377C79.3032 143.407 80.0273 142.87 81.0725 142.753C80.7747 139.775 77.8375 143.577 77.6798 144.295C78.147 143.787 73.7849 144.739 74.0419 144.92C73.6214 143.857 74.001 143.185 75.1747 142.911C74.3805 142.572 71.3032 143.01 70.7076 142.222C71.5426 141.65 72.2725 140.966 72.8973 140.166C71.2623 141.188 70.1236 140.926 69.4754 139.384C72.3543 138.245 69.0492 139.682 69.3878 138.467C70.2054 138.94 71.0287 138.946 71.8521 138.479C71.1981 137.147 70.7543 135.746 70.5265 134.28C71.2857 134.923 72.1149 135.448 73.0141 135.845C73.5397 134.788 73.8784 133.667 74.0243 132.488C75.5543 135.185 75.274 138.584 77.4462 140.365C78.1703 140.955 84.3718 141.451 84.1149 139.804C84.255 140.096 79.8346 139.25 79.6944 139.244C79.817 139.185 81.4579 138.415 81.4871 138.339C82.0185 136.937 78.6667 137.772 78.4389 137.737C78.363 134.917 80.3484 137.328 79.2156 133.912C78.7426 132.482 77.9309 132.085 76.6054 129.655C79.4258 132.926 77.201 126.35 78.2404 127.232C77.6273 125.79 80.6696 128.219 81.0959 128.926C81.9952 128.038 82.7543 127.034 83.3733 125.924C83.4083 127.074 83.3032 127.01 83.0638 125.726C82.9528 125.766 85.5805 127.104 85.0492 126.216C85.1251 122.823 82.0419 129.422 83.6711 123.512C83.5134 124.575 83.49 124.464 83.5952 123.185C83.7411 123.618 88.1499 127.828 89.1309 126.934C89.1251 126.94 87.928 121.79 86.2988 123.396C86.6492 121.971 87.4258 120.826 88.6287 119.974C88.9674 123.693 90.3806 126.683 90.2462 130.251C90.8711 130.823 92.9441 126.345 91.0112 125.889C90.9995 126.508 91.0871 127.11 91.2798 127.699C90.6316 127.658 89.9893 127.664 89.347 127.734C89.382 126.175 89.8258 124.745 90.6725 123.448C90.5791 124.4 90.8477 125.206 91.49 125.872C91.3674 124.172 91.5543 122.473 91.3557 120.762C92.074 121.994 92.2784 123.285 91.9747 124.639C95.0696 122.928 92.3484 128.137 93.3119 127.606C93.1484 125.947 96.4535 125.422 94.7076 123.472C95.4375 123.997 95.8229 123.74 95.8521 122.701C95.8813 122.876 96.0623 129.241 98.6141 126.736C98.7893 124.493 99.0287 123.863 99.5835 121.819C98.7192 122.082 99.0054 126.625 99.2389 126.572C98.1937 128.581 99.817 126.637 99.1689 128.855C98.2521 128.645 97.3645 128.342 96.5061 127.939C97.4229 129.737 101.645 130.368 100.699 128.196C100.559 128.237 103.011 129.463 100.185 130.648C100.792 130.946 100.705 134.759 100.705 135.477C97.0433 136.552 102.211 139.781 98.7484 141.101C99.3032 141.474 99.7762 141.936 100.173 142.496C99.3382 142.73 98.5149 142.975 97.6915 143.25C97.2944 142.298 96.4243 140.943 97.5981 142.572C96.8506 142.572 96.2433 142.269 95.782 141.661C96.5295 140.873 96.8273 139.857 98.7659 139.238C98.69 139.016 95.2448 135.594 94.8652 135.553C95.8229 137.831 93.7499 137.539 92.4944 136.488C90.0944 138.467 95.1222 140.523 93.8024 141.182C94.509 141.72 91.2798 137.696 92.8506 142.082C93.855 141.299 93.3528 141.066 91.3557 141.387C91.7645 144.061 94.6024 144.19 95.7061 144.482C96.3134 145.34 95.3966 146.946 97.5513 148.161C97.8433 145.982 98.9528 146.496 100.278 147.606C100.045 148.377 101.254 141.673 102.375 146.934C103.262 146.438 105.376 143.845 105.534 142.724C106.205 143.512 107.005 144.137 107.934 144.599C107.204 144.441 109.026 142.654 109.703 141.107C107.519 146.111 102.708 133.509 106.778 136.558C107.811 134.561 103.893 135.396 103.835 135.401C103.239 134.257 105.826 134.356 104.021 134.088C105.032 135.08 108.605 131.962 108.716 131.022C109.639 131.711 110.299 132.604 110.708 133.702C110.836 132.394 110.719 131.104 110.351 129.837C110.474 129.877 121.586 134.047 120.991 132.254C125.271 135.279 125.037 114.695 122.398 121.562C122.521 121.457 122.17 118.999 122.019 118.818C124.197 119.728 126.608 119.816 128.284 120.161C127.823 121.55 128.202 122.274 129.411 122.321C131.992 119.764 131.116 119.571 134.392 120.809C133.738 121.486 133.394 122.31 133.364 123.279C133.067 122.14 131.648 121.241 130.637 121.831C132.845 126.806 128.821 122.701 128.191 126.333C129.493 126.543 133.014 133.136 132.81 133.299C131.07 134.076 131.437 136.161 131.829 138.66C135.928 135.063 136.483 142.888 141.312 143.139C143.239 143.238 141.376 137.848 143.397 141.509C143.11 140.523 143.04 139.524 143.192 138.508C143.455 140.055 142.964 144.015 145.47 144.166C148.611 144.353 144.652 137.223 147.607 140.599C150.059 138.952 145.779 135.693 150.036 133.182C151.28 132.453 156.471 133.182 157.68 134.753C156.921 133.872 156.564 132.861 156.605 131.717C156.997 135.15 158.083 131.442 158.03 131.53C158.217 132.523 160.611 139.945 160.856 140.505C162.608 144.517 161.931 139.95 164.43 143.267C163.969 144.534 163.642 145.837 163.455 147.18C166.018 147.08 162.538 141.673 167.011 147.536C168.564 146.029 166.783 144.458 167.344 142.707C167.163 144.038 167.671 144.908 168.862 145.323C169.265 143.559 169.849 141.86 170.608 140.219C170.433 140.166 172.845 143.372 173.078 140.009C172.559 139.069 171.928 138.21 171.181 137.439C171.186 137.428 178.684 128.622 177.744 126.058C177.651 126.018 176.576 121.165 176.226 119.647C176.15 119.67 176.448 120.599 176.226 119.647V119.664ZM115.864 105.439C115.969 105.264 116.927 105.772 115.864 105.439C115.875 105.422 115.881 105.439 115.864 105.439ZM121.265 129.194C120.699 128.966 122.614 128.599 121.265 129.194V129.194ZM121.703 119.962C121.727 120.196 122.614 119.804 121.703 119.962C121.703 119.933 121.756 119.95 121.703 119.962ZM132.43 135.676C132.518 135.635 132.71 135.559 132.792 135.542C132.722 135.588 132.524 135.664 132.43 135.676Z" fill="#E6E6E6"/>
</g>
</g>
<defs>
<filter id="filter0_f_12903_5173" x="-2.1" y="-2.1" width="245.2" height="244.2" filterUnits="userSpaceOnUse" color-interpolation-filters="sRGB">
<feFlood flood-opacity="0" result="BackgroundImageFix"/>
<feBlend mode="normal" in="SourceGraphic" in2="BackgroundImageFix" result="shape"/>
<feGaussianBlur stdDeviation="26.55" result="effect1_foregroundBlur_12903_5173"/>
</filter>
<radialGradient id="paint0_radial_12903_5173" cx="0" cy="0" r="1" gradientUnits="userSpaceOnUse" gradientTransform="translate(117.432 70.3787) rotate(40.76) scale(104.794)">
<stop offset="0.07" stop-color="white"/>
<stop offset="0.37" stop-color="#FCFCFC"/>
<stop offset="0.53" stop-color="#F4F4F4"/>
<stop offset="0.66" stop-color="#E6E6E6"/>
<stop offset="0.77" stop-color="#D3D3D3"/>
<stop offset="0.87" stop-color="#BABABA"/>
<stop offset="0.94" stop-color="#A3A3A3"/>
</radialGradient>
<radialGradient id="paint1_radial_12903_5173" cx="0" cy="0" r="1" gradientUnits="userSpaceOnUse" gradientTransform="translate(120.385 120.375) rotate(40.76) scale(69.3839)">
<stop offset="0.9" stop-color="#808080"/>
<stop offset="1" stop-color="#CDCDCC"/>
</radialGradient>
<clipPath id="clip0_12903_5173">
<rect width="240" height="240" fill="white"/>
</clipPath>
</defs>
</svg>
